<svg width="16" height="16" viewBox="0 0 16 16" fill="none" xmlns="http://www.w3.org/2000/svg">
<path fill-rule="evenodd" clip-rule="evenodd" d="M7.63889 0.358765C3.40278 0.358765 0 3.7606 0 7.99555C0 12.2305 3.40278 15.6323 7.63889 15.6323C11.875 15.6323 15.2778 12.2305 15.2778 7.99555C15.2778 3.7606 11.875 0.358765 7.63889 0.358765ZM7.63889 14.2438C4.16667 14.2438 1.38889 11.4668 1.38889 7.99556C1.38889 4.52429 4.16667 1.74728 7.63889 1.74728C11.1111 1.74728 13.8889 4.52429 13.8889 7.99556C13.8889 11.4668 11.1111 14.2438 7.63889 14.2438ZM10.4167 8.6898C10.8333 8.6898 11.1111 8.4121 11.1111 7.99555C11.1111 7.579 10.8333 7.3013 10.4167 7.3013H8.33333V5.21854C8.33333 4.80198 8.05556 4.52428 7.63889 4.52428C7.22222 4.52428 6.94444 4.80198 6.94444 5.21854V7.3013H4.86111C4.44444 7.3013 4.16667 7.579 4.16667 7.99555C4.16667 8.4121 4.44444 8.6898 4.86111 8.6898H6.94444V10.7726C6.94444 11.1891 7.22222 11.4668 7.63889 11.4668C8.05556 11.4668 8.33333 11.1891 8.33333 10.7726V8.6898H10.4167Z" fill="white"/>
</svg>
