<svg width="24" height="24" viewBox="0 0 24 24" fill="none" xmlns="http://www.w3.org/2000/svg">
<path fill-rule="evenodd" clip-rule="evenodd" d="M13.99 4.36547C13.37 4.12898 12.6987 4 11.9999 4C9.15341 4 6.76211 6.14032 6.44776 8.96942L6.19596 11.2356L6.18951 11.2933C6.06056 12.417 5.6948 13.5005 5.11636 14.4725L5.08658 14.5222L4.50854 15.4856C3.98399 16.3599 3.72171 16.797 3.77833 17.1559C3.81601 17.3946 3.93889 17.6117 4.12426 17.7668C4.40283 18 4.9126 18 5.93215 18H18.0677C19.0872 18 19.597 18 19.8756 17.7668C20.0609 17.6117 20.1838 17.3946 20.2215 17.1559C20.2781 16.797 20.0159 16.3599 19.4913 15.4856L18.9133 14.5222L18.8835 14.4725C18.305 13.5005 17.9393 12.417 17.8103 11.2933L17.8039 11.2356L17.7695 10.926C17.5204 10.9746 17.2631 11 16.9999 11C14.7907 11 12.9999 9.20914 12.9999 7C12.9999 5.99096 13.3735 5.06919 13.99 4.36547ZM15.7458 5.44197C15.2909 5.80858 14.9999 6.3703 14.9999 7C14.9999 8.10457 15.8953 9 16.9999 9C17.1895 9 17.373 8.9736 17.5469 8.92428C17.3816 7.53804 16.7171 6.3199 15.7458 5.44197Z" fill="white"/>
<path d="M13.99 4.36547L14.3661 4.69494L14.8395 4.15443L14.1682 3.89831L13.99 4.36547ZM6.44776 8.96942L6.94471 9.02463L6.44776 8.96942ZM6.19596 11.2356L6.69285 11.2913L6.6929 11.2909L6.19596 11.2356ZM6.18951 11.2933L6.68625 11.3503L6.6864 11.3489L6.18951 11.2933ZM5.11636 14.4725L5.54534 14.7294L5.54603 14.7282L5.11636 14.4725ZM5.08658 14.5222L5.51532 14.7795L5.51555 14.7791L5.08658 14.5222ZM4.50854 15.4856L4.93729 15.7429L4.50854 15.4856ZM3.77833 17.1559L3.28444 17.2338L3.28444 17.2338L3.77833 17.1559ZM4.12426 17.7668L4.44518 17.3834H4.44518L4.12426 17.7668ZM19.8756 17.7668L20.1965 18.1502L19.8756 17.7668ZM20.2215 17.1559L20.7154 17.2338V17.2338L20.2215 17.1559ZM19.4913 15.4856L19.0626 15.7429L19.4913 15.4856ZM18.9133 14.5222L18.4843 14.7791L18.4845 14.7795L18.9133 14.5222ZM18.8835 14.4725L18.4538 14.7282L18.4545 14.7294L18.8835 14.4725ZM17.8103 11.2933L17.3134 11.3489L17.3136 11.3503L17.8103 11.2933ZM17.8039 11.2356L17.3069 11.2909L17.307 11.2913L17.8039 11.2356ZM17.7695 10.926L18.2664 10.8708L18.2065 10.3315L17.6738 10.4353L17.7695 10.926ZM15.7458 5.44197L16.081 5.07103L15.7643 4.78481L15.432 5.05267L15.7458 5.44197ZM17.5469 8.92428L17.6833 9.4053L18.0939 9.28883L18.0434 8.86509L17.5469 8.92428ZM11.9999 4.5C12.6368 4.5 13.2478 4.6175 13.8117 4.83264L14.1682 3.89831C13.4923 3.64047 12.7606 3.5 11.9999 3.5V4.5ZM6.94471 9.02463C7.23091 6.44875 9.40819 4.5 11.9999 4.5V3.5C8.89864 3.5 6.2933 5.83189 5.95082 8.9142L6.94471 9.02463ZM6.6929 11.2909L6.94471 9.02463L5.95082 8.9142L5.69902 11.1804L6.6929 11.2909ZM6.6864 11.3489L6.69285 11.2913L5.69907 11.18L5.69261 11.2376L6.6864 11.3489ZM5.54603 14.7282C6.16062 13.6955 6.54924 12.5442 6.68625 11.3503L5.69277 11.2363C5.57188 12.2897 5.22898 13.3056 4.6867 14.2168L5.54603 14.7282ZM5.51555 14.7791L5.54534 14.7294L4.68739 14.2156L4.6576 14.2654L5.51555 14.7791ZM4.93729 15.7429L5.51532 14.7795L4.65783 14.265L4.07979 15.2284L4.93729 15.7429ZM4.27222 17.0779C4.26787 17.0504 4.26581 16.9649 4.37784 16.7271C4.48863 16.4918 4.6694 16.1894 4.93729 15.7429L4.07979 15.2284C3.82313 15.6562 3.61048 16.0094 3.47315 16.301C3.33706 16.5899 3.23217 16.9025 3.28444 17.2338L4.27222 17.0779ZM4.44518 17.3834C4.3525 17.3058 4.29106 17.1973 4.27222 17.0779L3.28444 17.2338C3.34095 17.5919 3.52529 17.9175 3.80333 18.1502L4.44518 17.3834ZM5.93215 17.5C5.41147 17.5 5.05912 17.4994 4.80039 17.4734C4.53877 17.447 4.46658 17.4013 4.44518 17.3834L3.80333 18.1502C4.06051 18.3655 4.38249 18.4364 4.70029 18.4683C5.02098 18.5006 5.43329 18.5 5.93215 18.5V17.5ZM18.0677 17.5H5.93215V18.5H18.0677V17.5ZM19.5547 17.3834C19.5333 17.4013 19.4611 17.447 19.1995 17.4734C18.9407 17.4994 18.5884 17.5 18.0677 17.5V18.5C18.5666 18.5 18.9789 18.5006 19.2996 18.4683C19.6174 18.4364 19.9393 18.3655 20.1965 18.1502L19.5547 17.3834ZM19.7276 17.0779C19.7088 17.1973 19.6473 17.3058 19.5547 17.3834L20.1965 18.1502C20.4746 17.9175 20.6589 17.5919 20.7154 17.2338L19.7276 17.0779ZM19.0626 15.7429C19.3304 16.1894 19.5112 16.4918 19.622 16.7271C19.734 16.9649 19.732 17.0504 19.7276 17.0779L20.7154 17.2338C20.7677 16.9025 20.6628 16.5899 20.5267 16.301C20.3894 16.0094 20.1767 15.6562 19.92 15.2284L19.0626 15.7429ZM18.4845 14.7795L19.0626 15.7429L19.92 15.2284L19.342 14.265L18.4845 14.7795ZM18.4545 14.7294L18.4843 14.7791L19.3422 14.2654L19.3125 14.2156L18.4545 14.7294ZM17.3136 11.3503C17.4506 12.5442 17.8392 13.6955 18.4538 14.7282L19.3131 14.2168C18.7709 13.3056 18.428 12.2897 18.3071 11.2363L17.3136 11.3503ZM17.307 11.2913L17.3134 11.3489L18.3072 11.2376L18.3008 11.18L17.307 11.2913ZM17.2725 10.9813L17.3069 11.2909L18.3008 11.1804L18.2664 10.8708L17.2725 10.9813ZM17.6738 10.4353C17.4561 10.4777 17.2309 10.5 16.9999 10.5V11.5C17.2954 11.5 17.5847 11.4714 17.8651 11.4168L17.6738 10.4353ZM16.9999 10.5C15.0669 10.5 13.4999 8.933 13.4999 7H12.4999C12.4999 9.48528 14.5146 11.5 16.9999 11.5V10.5ZM13.4999 7C13.4999 6.11674 13.8264 5.31097 14.3661 4.69494L13.6138 4.03601C12.9206 4.8274 12.4999 5.86519 12.4999 7H13.4999ZM15.432 5.05267C14.8644 5.51011 14.4999 6.21266 14.4999 7H15.4999C15.4999 6.52794 15.7174 6.10704 16.0595 5.83127L15.432 5.05267ZM14.4999 7C14.4999 8.38071 15.6192 9.5 16.9999 9.5V8.5C16.1715 8.5 15.4999 7.82843 15.4999 7H14.4999ZM16.9999 9.5C17.2361 9.5 17.4655 9.46709 17.6833 9.4053L17.4104 8.44326C17.2805 8.48011 17.1429 8.5 16.9999 8.5V9.5ZM15.4105 5.81292C16.2953 6.61262 16.8999 7.72129 17.0504 8.98347L18.0434 8.86509C17.8633 7.35478 17.1389 6.02718 16.081 5.07103L15.4105 5.81292Z" fill="black" fill-opacity="0.5"/>
<path d="M9.10222 18.4059C9.27315 19.1501 9.64978 19.8077 10.1737 20.2767C10.6976 20.7458 11.3396 21 12 21C12.6604 21 13.3024 20.7458 13.8263 20.2767C14.3502 19.8077 14.7269 19.1501 14.8978 18.4059" stroke="black" stroke-opacity="0.5" stroke-linecap="round"/>
<circle cx="17" cy="7" r="2" fill="#C04343"/>
</svg>
