<svg width="10" height="10" viewBox="0 0 10 10" fill="none" xmlns="http://www.w3.org/2000/svg">
<path d="M7.38636 4H6.68182C6.64015 3.79735 6.56724 3.61932 6.46307 3.46591C6.3608 3.3125 6.2358 3.18371 6.08807 3.07955C5.94223 2.97348 5.7803 2.89394 5.60227 2.84091C5.42424 2.78788 5.23864 2.76136 5.04545 2.76136C4.69318 2.76136 4.37405 2.85038 4.08807 3.02841C3.80398 3.20644 3.57765 3.46875 3.40909 3.81534C3.24242 4.16193 3.15909 4.58712 3.15909 5.09091C3.15909 5.5947 3.24242 6.01989 3.40909 6.36648C3.57765 6.71307 3.80398 6.97538 4.08807 7.15341C4.37405 7.33144 4.69318 7.42045 5.04545 7.42045C5.23864 7.42045 5.42424 7.39394 5.60227 7.34091C5.7803 7.28788 5.94223 7.20928 6.08807 7.10511C6.2358 6.99905 6.3608 6.86932 6.46307 6.71591C6.56724 6.56061 6.64015 6.38258 6.68182 6.18182H7.38636C7.33333 6.47917 7.23674 6.74527 7.09659 6.98011C6.95644 7.21496 6.7822 7.41477 6.57386 7.57955C6.36553 7.74242 6.13163 7.86648 5.87216 7.9517C5.61458 8.03693 5.33902 8.07955 5.04545 8.07955C4.54924 8.07955 4.10795 7.95833 3.72159 7.71591C3.33523 7.47348 3.03125 7.12879 2.80966 6.68182C2.58807 6.23485 2.47727 5.70455 2.47727 5.09091C2.47727 4.47727 2.58807 3.94697 2.80966 3.5C3.03125 3.05303 3.33523 2.70833 3.72159 2.46591C4.10795 2.22348 4.54924 2.10227 5.04545 2.10227C5.33902 2.10227 5.61458 2.14489 5.87216 2.23011C6.13163 2.31534 6.36553 2.44034 6.57386 2.60511C6.7822 2.76799 6.95644 2.96686 7.09659 3.2017C7.23674 3.43466 7.33333 3.70076 7.38636 4Z" fill="black"/>
<circle cx="5" cy="5" r="4.5" stroke="black"/>
</svg>
