<svg width="16" height="16" viewBox="0 0 16 16" fill="none" xmlns="http://www.w3.org/2000/svg">
<path d="M9.23057 7.9999L12.726 4.06752C12.9432 3.82341 12.9432 3.42734 12.726 3.18324C12.5088 2.93892 12.1572 2.93892 11.94 3.18324L8.44454 7.11561L4.94891 3.18324C4.73174 2.93892 4.38004 2.93892 4.16288 3.18324C3.94571 3.42734 3.94571 3.82341 4.16288 4.06752L7.65851 7.9999L4.16288 11.9323C3.94571 12.1764 3.94571 12.5724 4.16288 12.8166C4.27146 12.9385 4.41377 12.9996 4.55589 12.9996C4.69801 12.9996 4.84032 12.9385 4.94891 12.8163L8.44454 8.88397L11.94 12.8163C12.0486 12.9385 12.1909 12.9996 12.333 12.9996C12.4751 12.9996 12.6174 12.9385 12.726 12.8163C12.9432 12.5722 12.9432 12.1762 12.726 11.9321L9.23057 7.9999Z" fill="#203865"/>
</svg>
