<svg width="16" height="16" viewBox="0 0 16 16" fill="none" xmlns="http://www.w3.org/2000/svg">
<path d="M7 10.6667L7 6.66667" stroke="#112A54" stroke-linecap="round"/>
<path d="M9 10.6667L9 6.66667" stroke="#112A54" stroke-linecap="round"/>
<path d="M2 4.33333H14V4.33333C13.6904 4.33333 13.5356 4.33333 13.4056 4.35044C12.5081 4.4686 11.8019 5.17481 11.6838 6.07228C11.6667 6.20225 11.6667 6.35705 11.6667 6.66667V9.33334C11.6667 10.8971 11.6667 11.6789 11.2534 12.2175C11.147 12.3562 11.0229 12.4803 10.8842 12.5867C10.3456 13 9.56372 13 8 13V13C6.43628 13 5.65443 13 5.11581 12.5867C4.97715 12.4803 4.85303 12.3562 4.74663 12.2175C4.33333 11.6789 4.33333 10.897 4.33333 9.33333V6.66667C4.33333 6.35705 4.33333 6.20225 4.31622 6.07228C4.19807 5.17481 3.49185 4.4686 2.59439 4.35044C2.46442 4.33333 2.30961 4.33333 2 4.33333V4.33333Z" stroke="#112A54" stroke-linecap="round"/>
<path d="M6.33341 2.33349C6.33341 2.33349 6.66675 1.66667 8.00008 1.66667C9.33341 1.66667 9.66675 2.33333 9.66675 2.33333" stroke="#112A54" stroke-linecap="round"/>
</svg>
