<svg width="16" height="16" viewBox="0 0 16 16" fill="none" xmlns="http://www.w3.org/2000/svg">
<path d="M8.64636 4.64645L4.03808 9.25473C4.02706 9.26575 4.01611 9.27668 4.00525 9.28752C3.84278 9.44965 3.69895 9.59317 3.59758 9.7722C3.49622 9.95123 3.44715 10.1484 3.39171 10.3711C3.38801 10.386 3.38427 10.401 3.38049 10.4162L3.05029 11.7369C3.04808 11.7458 3.04585 11.7547 3.04361 11.7636C3.00437 11.9203 2.96246 12.0877 2.94871 12.2282C2.93357 12.3829 2.9371 12.644 3.14651 12.8534C3.35593 13.0628 3.61698 13.0663 3.77171 13.0512C3.91225 13.0375 4.07959 12.9955 4.23628 12.9563C4.24521 12.9541 4.25411 12.9518 4.26297 12.9496L5.58376 12.6194C5.59888 12.6156 5.61389 12.6119 5.62878 12.6082C5.85151 12.5528 6.04869 12.5037 6.22772 12.4023C6.40675 12.301 6.55027 12.1571 6.7124 11.9947C6.72324 11.9838 6.73416 11.9729 6.74519 11.9618L11.3535 7.35355C11.37 7.33701 11.3864 7.32065 11.4027 7.30446C11.6261 7.08162 11.8193 6.88892 11.9297 6.66602C12.1377 6.24636 12.1377 5.75364 11.9297 5.33398C11.8193 5.11108 11.6261 4.91838 11.4027 4.69554C11.3864 4.67935 11.37 4.66299 11.3535 4.64645C11.3369 4.62991 11.3206 4.61351 11.3044 4.59727C11.0815 4.37384 10.8888 4.18064 10.6659 4.07018C10.2463 3.86222 9.75356 3.86222 9.3339 4.07018C9.11099 4.18064 8.9183 4.37384 8.69546 4.59727C8.67926 4.61351 8.6629 4.62991 8.64636 4.64645Z" stroke="#112A54"/>
<path d="M8.66675 5L11.0001 7.33333" stroke="#112A54"/>
</svg>
