<svg width="16" height="17" viewBox="0 0 16 17" fill="none" xmlns="http://www.w3.org/2000/svg">
<path d="M1.89845 11.2056C-0.632843 8.67498 -0.632792 4.55729 1.89845 2.02665C4.4298 -0.503999 8.54857 -0.503999 11.0799 2.02665C13.2274 4.17356 13.5526 7.36656 12.0565 9.85995C12.0565 9.85995 11.949 10.0402 12.0941 10.1852C12.9222 11.013 15.4065 13.4966 15.4065 13.4966C16.0658 14.1557 16.2227 15.0773 15.638 15.6619L15.5374 15.7624C14.9527 16.347 14.0308 16.1901 13.3716 15.531C13.3716 15.531 10.8926 13.0526 10.0662 12.2266C9.91411 12.0745 9.73386 12.182 9.73386 12.182C7.23983 13.6776 4.04595 13.3525 1.89845 11.2056ZM9.88128 10.0073C11.7517 8.13743 11.7516 5.09495 9.88122 3.22506C8.01082 1.35522 4.9675 1.35517 3.09714 3.22506C1.22674 5.0949 1.22674 8.13743 3.09714 10.0073C4.96755 11.8771 8.01082 11.8771 9.88128 10.0073Z" fill="black"/>
</svg>
