<svg width="1216" height="548" viewBox="0 0 1216 548" fill="none" xmlns="http://www.w3.org/2000/svg">
<path d="M31 0H32V524H31C31 319.365 31 204.635 31 0Z" fill="#747474"/>
<line opacity="0.7" x1="31" y1="215.75" x2="1216" y2="215.75" stroke="#747474" stroke-width="0.5" stroke-dasharray="3.5 1.5"/>
<line opacity="0.7" x1="31" y1="242.75" x2="1216" y2="242.75" stroke="#747474" stroke-width="0.5" stroke-dasharray="3.5 1.5"/>
<line opacity="0.7" x1="31" y1="326.75" x2="1216" y2="326.75" stroke="#747474" stroke-width="0.5" stroke-dasharray="3.5 1.5"/>
<line opacity="0.7" x1="31" y1="18.75" x2="1216" y2="18.75" stroke="#747474" stroke-width="0.5" stroke-dasharray="3.5 1.5"/>
<line opacity="0.7" x1="31" y1="298.75" x2="1216" y2="298.75" stroke="#747474" stroke-width="0.5" stroke-dasharray="3.5 1.5"/>
<line opacity="0.7" x1="31" y1="270.75" x2="1216" y2="270.75" stroke="#747474" stroke-width="0.5" stroke-dasharray="3.5 1.5"/>
<line opacity="0.7" x1="31" y1="354.75" x2="1216" y2="354.75" stroke="#747474" stroke-width="0.5" stroke-dasharray="3.5 1.5"/>
<line opacity="0.7" x1="31" y1="46.75" x2="1216" y2="46.75" stroke="#747474" stroke-width="0.5" stroke-dasharray="3.5 1.5"/>
<line opacity="0.7" x1="31" y1="410.75" x2="1216" y2="410.75" stroke="#747474" stroke-width="0.5" stroke-dasharray="3.5 1.5"/>
<line opacity="0.7" x1="31" y1="102.75" x2="1216" y2="102.75" stroke="#747474" stroke-width="0.5" stroke-dasharray="3.5 1.5"/>
<line opacity="0.7" x1="31" y1="382.75" x2="1216" y2="382.75" stroke="#747474" stroke-width="0.5" stroke-dasharray="3.5 1.5"/>
<line opacity="0.7" x1="31" y1="74.75" x2="1216" y2="74.75" stroke="#747474" stroke-width="0.5" stroke-dasharray="3.5 1.5"/>
<line opacity="0.7" x1="31" y1="466.75" x2="1216" y2="466.75" stroke="#747474" stroke-width="0.5" stroke-dasharray="3.5 1.5"/>
<line opacity="0.7" x1="31" y1="158.75" x2="1216" y2="158.75" stroke="#747474" stroke-width="0.5" stroke-dasharray="3.5 1.5"/>
<line opacity="0.7" x1="31" y1="438.75" x2="1216" y2="438.75" stroke="#747474" stroke-width="0.5" stroke-dasharray="3.5 1.5"/>
<line opacity="0.7" x1="31" y1="130.75" x2="1216" y2="130.75" stroke="#747474" stroke-width="0.5" stroke-dasharray="3.5 1.5"/>
<line opacity="0.7" x1="31" y1="495.75" x2="1216" y2="495.75" stroke="#747474" stroke-width="0.5" stroke-dasharray="3.5 1.5"/>
<line opacity="0.7" x1="31" y1="187.75" x2="1216" y2="187.75" stroke="#747474" stroke-width="0.5" stroke-dasharray="3.5 1.5"/>
<path d="M478.128 544V536H479.577V542.785H483.1V544H478.128ZM486.874 544.117C486.272 544.117 485.753 543.992 485.315 543.742C484.88 543.49 484.546 543.133 484.311 542.672C484.077 542.208 483.96 541.663 483.96 541.035C483.96 540.418 484.077 539.876 484.311 539.41C484.548 538.941 484.879 538.577 485.303 538.316C485.728 538.053 486.227 537.922 486.8 537.922C487.169 537.922 487.518 537.982 487.846 538.102C488.177 538.219 488.469 538.401 488.721 538.648C488.977 538.896 489.177 539.211 489.323 539.594C489.469 539.974 489.542 540.427 489.542 540.953V541.387H484.624V540.434H488.186C488.184 540.163 488.125 539.922 488.01 539.711C487.896 539.497 487.736 539.329 487.53 539.207C487.327 539.085 487.09 539.023 486.819 539.023C486.53 539.023 486.276 539.094 486.057 539.234C485.839 539.372 485.668 539.555 485.546 539.781C485.426 540.005 485.365 540.251 485.362 540.52V541.352C485.362 541.701 485.426 542 485.553 542.25C485.681 542.497 485.859 542.687 486.089 542.82C486.318 542.951 486.586 543.016 486.893 543.016C487.099 543.016 487.285 542.987 487.452 542.93C487.619 542.87 487.763 542.783 487.885 542.668C488.008 542.553 488.1 542.411 488.163 542.242L489.483 542.391C489.4 542.74 489.241 543.044 489.007 543.305C488.775 543.562 488.478 543.763 488.116 543.906C487.754 544.047 487.34 544.117 486.874 544.117ZM495.848 538L493.711 544H492.148L490.012 538H491.519L492.898 542.457H492.961L494.344 538H495.848ZM499.2 544.117C498.599 544.117 498.079 543.992 497.642 543.742C497.207 543.49 496.872 543.133 496.638 542.672C496.403 542.208 496.286 541.663 496.286 541.035C496.286 540.418 496.403 539.876 496.638 539.41C496.875 538.941 497.205 538.577 497.63 538.316C498.054 538.053 498.553 537.922 499.126 537.922C499.496 537.922 499.845 537.982 500.173 538.102C500.504 538.219 500.795 538.401 501.048 538.648C501.303 538.896 501.504 539.211 501.649 539.594C501.795 539.974 501.868 540.427 501.868 540.953V541.387H496.95V540.434H500.513C500.51 540.163 500.451 539.922 500.337 539.711C500.222 539.497 500.062 539.329 499.856 539.207C499.653 539.085 499.416 539.023 499.146 539.023C498.856 539.023 498.603 539.094 498.384 539.234C498.165 539.372 497.994 539.555 497.872 539.781C497.752 540.005 497.691 540.251 497.688 540.52V541.352C497.688 541.701 497.752 542 497.88 542.25C498.007 542.497 498.186 542.687 498.415 542.82C498.644 542.951 498.912 543.016 499.22 543.016C499.425 543.016 499.612 542.987 499.778 542.93C499.945 542.87 500.09 542.783 500.212 542.668C500.334 542.553 500.427 542.411 500.489 542.242L501.81 542.391C501.726 542.74 501.567 543.044 501.333 543.305C501.101 543.562 500.804 543.763 500.442 543.906C500.08 544.047 499.666 544.117 499.2 544.117ZM504.401 536V544H502.986V536H504.401ZM511.193 544.109C510.672 544.109 510.206 544.012 509.794 543.816C509.383 543.618 509.056 543.348 508.814 543.004C508.574 542.66 508.447 542.267 508.431 541.824H509.837C509.863 542.152 510.005 542.421 510.263 542.629C510.521 542.835 510.831 542.937 511.193 542.937C511.477 542.937 511.729 542.872 511.951 542.742C512.172 542.612 512.346 542.431 512.474 542.199C512.602 541.967 512.664 541.703 512.662 541.406C512.664 541.104 512.6 540.836 512.47 540.602C512.34 540.367 512.162 540.184 511.935 540.051C511.708 539.915 511.448 539.848 511.154 539.848C510.914 539.845 510.678 539.889 510.447 539.98C510.215 540.072 510.031 540.191 509.896 540.34L508.587 540.125L509.005 536H513.646V537.211H510.204L509.974 539.332H510.021C510.169 539.158 510.379 539.013 510.65 538.898C510.921 538.781 511.217 538.723 511.54 538.723C512.025 538.723 512.457 538.837 512.837 539.066C513.217 539.293 513.517 539.605 513.736 540.004C513.954 540.402 514.064 540.858 514.064 541.371C514.064 541.9 513.941 542.371 513.697 542.785C513.454 543.197 513.117 543.521 512.685 543.758C512.255 543.992 511.758 544.109 511.193 544.109Z" fill="black"/>
<path d="M726.042 544V536H727.491V542.785H731.014V544H726.042ZM734.788 544.117C734.186 544.117 733.667 543.992 733.229 543.742C732.794 543.49 732.46 543.133 732.225 542.672C731.991 542.208 731.874 541.663 731.874 541.035C731.874 540.418 731.991 539.876 732.225 539.41C732.462 538.941 732.793 538.577 733.218 538.316C733.642 538.053 734.141 537.922 734.714 537.922C735.083 537.922 735.432 537.982 735.76 538.102C736.091 538.219 736.383 538.401 736.635 538.648C736.891 538.896 737.091 539.211 737.237 539.594C737.383 539.974 737.456 540.427 737.456 540.953V541.387H732.538V540.434H736.1C736.098 540.163 736.039 539.922 735.925 539.711C735.81 539.497 735.65 539.329 735.444 539.207C735.241 539.085 735.004 539.023 734.733 539.023C734.444 539.023 734.19 539.094 733.971 539.234C733.753 539.372 733.582 539.555 733.46 539.781C733.34 540.005 733.279 540.251 733.276 540.52V541.352C733.276 541.701 733.34 542 733.468 542.25C733.595 542.497 733.774 542.687 734.003 542.82C734.232 542.951 734.5 543.016 734.807 543.016C735.013 543.016 735.199 542.987 735.366 542.93C735.533 542.87 735.677 542.783 735.8 542.668C735.922 542.553 736.014 542.411 736.077 542.242L737.397 542.391C737.314 542.74 737.155 543.044 736.921 543.305C736.689 543.562 736.392 543.763 736.03 543.906C735.668 544.047 735.254 544.117 734.788 544.117ZM743.762 538L741.625 544H740.062L737.926 538H739.433L740.812 542.457H740.875L742.258 538H743.762ZM747.114 544.117C746.513 544.117 745.993 543.992 745.556 543.742C745.121 543.49 744.786 543.133 744.552 542.672C744.317 542.208 744.2 541.663 744.2 541.035C744.2 540.418 744.317 539.876 744.552 539.41C744.789 538.941 745.119 538.577 745.544 538.316C745.968 538.053 746.467 537.922 747.04 537.922C747.41 537.922 747.759 537.982 748.087 538.102C748.418 538.219 748.709 538.401 748.962 538.648C749.217 538.896 749.418 539.211 749.563 539.594C749.709 539.974 749.782 540.427 749.782 540.953V541.387H744.864V540.434H748.427C748.424 540.163 748.366 539.922 748.251 539.711C748.136 539.497 747.976 539.329 747.771 539.207C747.567 539.085 747.33 539.023 747.06 539.023C746.771 539.023 746.517 539.094 746.298 539.234C746.079 539.372 745.909 539.555 745.786 539.781C745.666 540.005 745.605 540.251 745.603 540.52V541.352C745.603 541.701 745.666 542 745.794 542.25C745.922 542.497 746.1 542.687 746.329 542.82C746.558 542.951 746.826 543.016 747.134 543.016C747.34 543.016 747.526 542.987 747.692 542.93C747.859 542.87 748.004 542.783 748.126 542.668C748.248 542.553 748.341 542.411 748.403 542.242L749.724 542.391C749.64 542.74 749.481 543.044 749.247 543.305C749.015 543.562 748.718 543.763 748.356 543.906C747.994 544.047 747.58 544.117 747.114 544.117ZM752.315 536V544H750.901V536H752.315ZM759.255 544.109C758.872 544.107 758.499 544.04 758.134 543.91C757.77 543.777 757.441 543.562 757.15 543.266C756.858 542.966 756.626 542.569 756.454 542.074C756.283 541.577 756.198 540.961 756.201 540.227C756.201 539.542 756.273 538.931 756.419 538.395C756.565 537.858 756.775 537.405 757.048 537.035C757.322 536.663 757.651 536.379 758.037 536.184C758.425 535.988 758.858 535.891 759.337 535.891C759.84 535.891 760.285 535.99 760.673 536.187C761.064 536.385 761.379 536.656 761.619 537C761.858 537.341 762.007 537.727 762.064 538.156H760.638C760.565 537.849 760.415 537.604 760.189 537.422C759.965 537.237 759.681 537.145 759.337 537.145C758.783 537.145 758.356 537.385 758.056 537.867C757.759 538.349 757.609 539.01 757.607 539.852H757.662C757.789 539.622 757.954 539.426 758.158 539.262C758.361 539.098 758.59 538.971 758.845 538.883C759.103 538.792 759.375 538.746 759.662 538.746C760.13 538.746 760.551 538.858 760.923 539.082C761.298 539.306 761.595 539.615 761.814 540.008C762.033 540.398 762.141 540.846 762.138 541.352C762.141 541.878 762.021 542.35 761.779 542.77C761.537 543.186 761.199 543.514 760.767 543.754C760.335 543.993 759.831 544.112 759.255 544.109ZM759.247 542.937C759.531 542.937 759.785 542.868 760.009 542.73C760.233 542.592 760.41 542.406 760.54 542.172C760.671 541.937 760.734 541.674 760.732 541.383C760.734 541.096 760.672 540.837 760.544 540.605C760.419 540.374 760.246 540.19 760.025 540.055C759.803 539.919 759.551 539.852 759.267 539.852C759.056 539.852 758.859 539.892 758.677 539.973C758.495 540.053 758.336 540.165 758.201 540.309C758.065 540.449 757.958 540.613 757.88 540.801C757.805 540.986 757.766 541.184 757.763 541.395C757.766 541.673 757.831 541.93 757.958 542.164C758.086 542.398 758.262 542.586 758.486 542.727C758.71 542.867 758.964 542.937 759.247 542.937Z" fill="black"/>
<path d="M212.945 544V536H214.394V542.785H217.918V544H212.945ZM221.691 544.117C221.09 544.117 220.57 543.992 220.133 543.742C219.698 543.49 219.363 543.133 219.129 542.672C218.894 542.208 218.777 541.663 218.777 541.035C218.777 540.418 218.894 539.876 219.129 539.41C219.366 538.941 219.696 538.577 220.121 538.316C220.545 538.053 221.044 537.922 221.617 537.922C221.987 537.922 222.336 537.982 222.664 538.102C222.995 538.219 223.286 538.401 223.539 538.648C223.794 538.896 223.995 539.211 224.14 539.594C224.286 539.974 224.359 540.427 224.359 540.953V541.387H219.441V540.434H223.004C223.001 540.163 222.942 539.922 222.828 539.711C222.713 539.497 222.553 539.329 222.347 539.207C222.144 539.085 221.907 539.023 221.636 539.023C221.347 539.023 221.093 539.094 220.875 539.234C220.656 539.372 220.485 539.555 220.363 539.781C220.243 540.005 220.182 540.251 220.179 540.52V541.352C220.179 541.701 220.243 542 220.371 542.25C220.498 542.497 220.677 542.687 220.906 542.82C221.135 542.951 221.403 543.016 221.711 543.016C221.916 543.016 222.103 542.987 222.269 542.93C222.436 542.87 222.58 542.783 222.703 542.668C222.825 542.553 222.918 542.411 222.98 542.242L224.301 542.391C224.217 542.74 224.058 543.044 223.824 543.305C223.592 543.562 223.295 543.763 222.933 543.906C222.571 544.047 222.157 544.117 221.691 544.117ZM230.665 538L228.528 544H226.966L224.829 538H226.337L227.716 542.457H227.778L229.161 538H230.665ZM234.018 544.117C233.416 544.117 232.896 543.992 232.459 543.742C232.024 543.49 231.689 543.133 231.455 542.672C231.221 542.208 231.104 541.663 231.104 541.035C231.104 540.418 231.221 539.876 231.455 539.41C231.692 538.941 232.023 538.577 232.447 538.316C232.872 538.053 233.37 537.922 233.943 537.922C234.313 537.922 234.662 537.982 234.99 538.102C235.321 538.219 235.613 538.401 235.865 538.648C236.12 538.896 236.321 539.211 236.467 539.594C236.613 539.974 236.686 540.427 236.686 540.953V541.387H231.768V540.434H235.33C235.327 540.163 235.269 539.922 235.154 539.711C235.04 539.497 234.88 539.329 234.674 539.207C234.471 539.085 234.234 539.023 233.963 539.023C233.674 539.023 233.42 539.094 233.201 539.234C232.982 539.372 232.812 539.555 232.689 539.781C232.57 540.005 232.508 540.251 232.506 540.52V541.352C232.506 541.701 232.57 542 232.697 542.25C232.825 542.497 233.003 542.687 233.232 542.82C233.462 542.951 233.73 543.016 234.037 543.016C234.243 543.016 234.429 542.987 234.596 542.93C234.762 542.87 234.907 542.783 235.029 542.668C235.152 542.553 235.244 542.411 235.307 542.242L236.627 542.391C236.544 542.74 236.385 543.044 236.15 543.305C235.919 543.562 235.622 543.763 235.26 543.906C234.898 544.047 234.484 544.117 234.018 544.117ZM239.218 536V544H237.804V536H239.218ZM243.084 542.516V541.363L246.479 536H247.44V537.641H246.854L244.569 541.262V541.324H249.307V542.516H243.084ZM246.901 544V542.164L246.916 541.648V536H248.284V544H246.901Z" fill="black"/>
<path d="M973.88 544V536H975.329V542.785H978.853V544H973.88ZM982.626 544.117C982.025 544.117 981.505 543.992 981.068 543.742C980.633 543.49 980.298 543.133 980.064 542.672C979.829 542.208 979.712 541.663 979.712 541.035C979.712 540.418 979.829 539.876 980.064 539.41C980.301 538.941 980.631 538.577 981.056 538.316C981.48 538.053 981.979 537.922 982.552 537.922C982.922 537.922 983.271 537.982 983.599 538.102C983.93 538.219 984.221 538.401 984.474 538.648C984.729 538.896 984.93 539.211 985.075 539.594C985.221 539.974 985.294 540.427 985.294 540.953V541.387H980.376V540.434H983.939C983.936 540.163 983.878 539.922 983.763 539.711C983.648 539.497 983.488 539.329 983.282 539.207C983.079 539.085 982.842 539.023 982.572 539.023C982.282 539.023 982.029 539.094 981.81 539.234C981.591 539.372 981.42 539.555 981.298 539.781C981.178 540.005 981.117 540.251 981.114 540.52V541.352C981.114 541.701 981.178 542 981.306 542.25C981.434 542.497 981.612 542.687 981.841 542.82C982.07 542.951 982.338 543.016 982.646 543.016C982.851 543.016 983.038 542.987 983.204 542.93C983.371 542.87 983.516 542.783 983.638 542.668C983.76 542.553 983.853 542.411 983.915 542.242L985.236 542.391C985.152 542.74 984.993 543.044 984.759 543.305C984.527 543.562 984.23 543.763 983.868 543.906C983.506 544.047 983.092 544.117 982.626 544.117ZM991.6 538L989.463 544H987.901L985.764 538H987.272L988.651 542.457H988.713L990.096 538H991.6ZM994.953 544.117C994.351 544.117 993.832 543.992 993.394 543.742C992.959 543.49 992.625 543.133 992.39 542.672C992.156 542.208 992.039 541.663 992.039 541.035C992.039 540.418 992.156 539.876 992.39 539.41C992.627 538.941 992.958 538.577 993.382 538.316C993.807 538.053 994.306 537.922 994.878 537.922C995.248 537.922 995.597 537.982 995.925 538.102C996.256 538.219 996.548 538.401 996.8 538.648C997.056 538.896 997.256 539.211 997.402 539.594C997.548 539.974 997.621 540.427 997.621 540.953V541.387H992.703V540.434H996.265C996.263 540.163 996.204 539.922 996.089 539.711C995.975 539.497 995.815 539.329 995.609 539.207C995.406 539.085 995.169 539.023 994.898 539.023C994.609 539.023 994.355 539.094 994.136 539.234C993.917 539.372 993.747 539.555 993.625 539.781C993.505 540.005 993.444 540.251 993.441 540.52V541.352C993.441 541.701 993.505 542 993.632 542.25C993.76 542.497 993.938 542.687 994.167 542.82C994.397 542.951 994.665 543.016 994.972 543.016C995.178 543.016 995.364 542.987 995.531 542.93C995.697 542.87 995.842 542.783 995.964 542.668C996.087 542.553 996.179 542.411 996.242 542.242L997.562 542.391C997.479 542.74 997.32 543.044 997.085 543.305C996.854 543.562 996.557 543.763 996.195 543.906C995.833 544.047 995.419 544.117 994.953 544.117ZM1000.15 536V544H998.739V536H1000.15ZM1004.46 544L1007.86 537.266V537.211H1003.91V536H1009.36V537.238L1005.96 544H1004.46Z" fill="black"/>
<path d="M1.705 247V246.233L4.58568 243.08C4.92375 242.71 5.20216 242.389 5.42091 242.116C5.63966 241.841 5.80159 241.582 5.90671 241.341C6.01466 241.097 6.06864 240.841 6.06864 240.574C6.06864 240.267 5.99478 240.001 5.84705 239.777C5.70216 239.553 5.5033 239.379 5.25046 239.257C4.99762 239.135 4.71353 239.074 4.39818 239.074C4.06296 239.074 3.77034 239.143 3.52034 239.283C3.27318 239.419 3.08142 239.611 2.94506 239.858C2.81154 240.105 2.74478 240.395 2.74478 240.727H1.73909C1.73909 240.216 1.85699 239.767 2.09279 239.381C2.32858 238.994 2.64961 238.693 3.05586 238.477C3.46495 238.261 3.92375 238.153 4.43228 238.153C4.94364 238.153 5.39676 238.261 5.79165 238.477C6.18654 238.693 6.4962 238.984 6.72063 239.351C6.94506 239.717 7.05728 240.125 7.05728 240.574C7.05728 240.895 6.99904 241.209 6.88256 241.516C6.76892 241.82 6.57006 242.159 6.28597 242.534C6.00472 242.906 5.61409 243.361 5.11409 243.898L3.15387 245.994V246.062H7.21069V247H1.705ZM11.7639 247.119C11.2639 247.119 10.8136 247.02 10.413 246.821C10.0125 246.622 9.69146 246.349 9.44998 246.003C9.2085 245.656 9.0764 245.261 9.05367 244.818H10.0764C10.1162 245.213 10.2952 245.54 10.6133 245.798C10.9344 246.054 11.3179 246.182 11.7639 246.182C12.1219 246.182 12.44 246.098 12.7184 245.93C12.9997 245.763 13.2199 245.533 13.379 245.24C13.5409 244.945 13.6219 244.611 13.6219 244.239C13.6219 243.858 13.538 243.518 13.3704 243.22C13.2057 242.919 12.9784 242.682 12.6886 242.509C12.3988 242.335 12.0679 242.247 11.6957 242.244C11.4287 242.241 11.1545 242.283 10.8733 242.368C10.592 242.45 10.3605 242.557 10.1787 242.688L9.19004 242.568L9.71845 238.273H14.2525V239.21H10.6048L10.298 241.784H10.3491C10.5281 241.642 10.7525 241.524 11.0224 241.43C11.2923 241.337 11.5736 241.29 11.8662 241.29C12.4003 241.29 12.8761 241.418 13.2937 241.673C13.7142 241.926 14.0437 242.273 14.2824 242.713C14.5238 243.153 14.6446 243.656 14.6446 244.222C14.6446 244.778 14.5196 245.276 14.2696 245.713C14.0224 246.148 13.6815 246.491 13.2469 246.744C12.8122 246.994 12.3179 247.119 11.7639 247.119ZM19.25 247.119C18.608 247.119 18.0611 246.945 17.6094 246.595C17.1577 246.243 16.8125 245.733 16.5739 245.065C16.3352 244.395 16.2159 243.585 16.2159 242.636C16.2159 241.693 16.3352 240.888 16.5739 240.22C16.8153 239.55 17.1619 239.038 17.6136 238.686C18.0682 238.331 18.6136 238.153 19.25 238.153C19.8864 238.153 20.4304 238.331 20.8821 238.686C21.3366 239.038 21.6832 239.55 21.9219 240.22C22.1634 240.888 22.2841 241.693 22.2841 242.636C22.2841 243.585 22.1648 244.395 21.9261 245.065C21.6875 245.733 21.3423 246.243 20.8906 246.595C20.4389 246.945 19.892 247.119 19.25 247.119ZM19.25 246.182C19.8864 246.182 20.3807 245.875 20.733 245.261C21.0852 244.648 21.2614 243.773 21.2614 242.636C21.2614 241.881 21.1804 241.237 21.0185 240.706C20.8594 240.175 20.6293 239.77 20.3281 239.491C20.0298 239.213 19.6705 239.074 19.25 239.074C18.6193 239.074 18.1264 239.385 17.7713 240.007C17.4162 240.626 17.2386 241.503 17.2386 242.636C17.2386 243.392 17.3182 244.034 17.4773 244.562C17.6364 245.091 17.8651 245.493 18.1634 245.768C18.4645 246.044 18.8267 246.182 19.25 246.182Z" fill="black"/>
<path d="M1.50578 303V302.233L4.38647 299.08C4.72453 298.71 5.00294 298.389 5.22169 298.116C5.44044 297.841 5.60238 297.582 5.70749 297.341C5.81544 297.097 5.86942 296.841 5.86942 296.574C5.86942 296.267 5.79556 296.001 5.64783 295.777C5.50294 295.553 5.30408 295.379 5.05124 295.257C4.7984 295.135 4.51431 295.074 4.19897 295.074C3.86374 295.074 3.57113 295.143 3.32113 295.283C3.07397 295.419 2.8822 295.611 2.74584 295.858C2.61232 296.105 2.54556 296.395 2.54556 296.727H1.53988C1.53988 296.216 1.65777 295.767 1.89357 295.381C2.12936 294.994 2.45039 294.693 2.85664 294.477C3.26573 294.261 3.72453 294.153 4.23306 294.153C4.74442 294.153 5.19755 294.261 5.59243 294.477C5.98732 294.693 6.29698 294.984 6.52141 295.351C6.74584 295.717 6.85806 296.125 6.85806 296.574C6.85806 296.895 6.79982 297.209 6.68334 297.516C6.5697 297.82 6.37084 298.159 6.08675 298.534C5.8055 298.906 5.41488 299.361 4.91488 299.898L2.95465 301.994V302.062H7.01147V303H1.50578ZM11.684 303.119C11.042 303.119 10.4951 302.945 10.0434 302.595C9.59167 302.243 9.2465 301.733 9.00786 301.065C8.76923 300.395 8.64991 299.585 8.64991 298.636C8.64991 297.693 8.76923 296.888 9.00786 296.22C9.24934 295.55 9.59593 295.038 10.0476 294.686C10.5022 294.331 11.0476 294.153 11.684 294.153C12.3204 294.153 12.8644 294.331 13.3161 294.686C13.7706 295.038 14.1172 295.55 14.3559 296.22C14.5974 296.888 14.7181 297.693 14.7181 298.636C14.7181 299.585 14.5988 300.395 14.3601 301.065C14.1215 301.733 13.7763 302.243 13.3246 302.595C12.8729 302.945 12.326 303.119 11.684 303.119ZM11.684 302.182C12.3204 302.182 12.8147 301.875 13.167 301.261C13.5192 300.648 13.6954 299.773 13.6954 298.636C13.6954 297.881 13.6144 297.237 13.4525 296.706C13.2934 296.175 13.0633 295.77 12.7621 295.491C12.4638 295.213 12.1045 295.074 11.684 295.074C11.0533 295.074 10.5604 295.385 10.2053 296.007C9.85019 296.626 9.67264 297.503 9.67264 298.636C9.67264 299.392 9.75218 300.034 9.91127 300.562C10.0704 301.091 10.2991 301.493 10.5974 301.768C10.8985 302.044 11.2607 302.182 11.684 302.182ZM19.25 303.119C18.608 303.119 18.0611 302.945 17.6094 302.595C17.1577 302.243 16.8125 301.733 16.5739 301.065C16.3352 300.395 16.2159 299.585 16.2159 298.636C16.2159 297.693 16.3352 296.888 16.5739 296.22C16.8153 295.55 17.1619 295.038 17.6136 294.686C18.0682 294.331 18.6136 294.153 19.25 294.153C19.8864 294.153 20.4304 294.331 20.8821 294.686C21.3366 295.038 21.6832 295.55 21.9219 296.22C22.1634 296.888 22.2841 297.693 22.2841 298.636C22.2841 299.585 22.1648 300.395 21.9261 301.065C21.6875 301.733 21.3423 302.243 20.8906 302.595C20.4389 302.945 19.892 303.119 19.25 303.119ZM19.25 302.182C19.8864 302.182 20.3807 301.875 20.733 301.261C21.0852 300.648 21.2614 299.773 21.2614 298.636C21.2614 297.881 21.1804 297.237 21.0185 296.706C20.8594 296.175 20.6293 295.77 20.3281 295.491C20.0298 295.213 19.6705 295.074 19.25 295.074C18.6193 295.074 18.1264 295.385 17.7713 296.007C17.4162 296.626 17.2386 297.503 17.2386 298.636C17.2386 299.392 17.3182 300.034 17.4773 300.562C17.6364 301.091 17.8651 301.493 18.1634 301.768C18.4645 302.044 18.8267 302.182 19.25 302.182Z" fill="black"/>
<path d="M1.06686 21.2102V20.3409L4.90209 14.2727H5.53277V15.6193H5.10664L2.20891 20.2045V20.2727H7.37368V21.2102H1.06686ZM5.17482 23V20.946V20.5412V14.2727H6.1805V23H5.17482ZM11.7639 23.1193C11.2639 23.1193 10.8136 23.0199 10.413 22.821C10.0125 22.6222 9.69146 22.3494 9.44998 22.0028C9.2085 21.6562 9.0764 21.2614 9.05367 20.8182H10.0764C10.1162 21.2131 10.2952 21.5398 10.6133 21.7983C10.9344 22.054 11.3179 22.1818 11.7639 22.1818C12.1219 22.1818 12.44 22.098 12.7184 21.9304C12.9997 21.7628 13.2199 21.5327 13.379 21.2401C13.5409 20.9446 13.6219 20.6108 13.6219 20.2386C13.6219 19.858 13.538 19.5185 13.3704 19.2202C13.2057 18.919 12.9784 18.6818 12.6886 18.5085C12.3988 18.3352 12.0679 18.2472 11.6957 18.2443C11.4287 18.2415 11.1545 18.2827 10.8733 18.3679C10.592 18.4503 10.3605 18.5568 10.1787 18.6875L9.19004 18.5682L9.71845 14.2727H14.2525V15.2102H10.6048L10.298 17.7841H10.3491C10.5281 17.642 10.7525 17.5241 11.0224 17.4304C11.2923 17.3366 11.5736 17.2898 11.8662 17.2898C12.4003 17.2898 12.8761 17.4176 13.2937 17.6733C13.7142 17.9261 14.0437 18.2727 14.2824 18.7131C14.5238 19.1534 14.6446 19.6562 14.6446 20.2216C14.6446 20.7784 14.5196 21.2756 14.2696 21.7131C14.0224 22.1477 13.6815 22.4915 13.2469 22.7443C12.8122 22.9943 12.3179 23.1193 11.7639 23.1193ZM19.25 23.1193C18.608 23.1193 18.0611 22.9446 17.6094 22.5952C17.1577 22.2429 16.8125 21.733 16.5739 21.0653C16.3352 20.3949 16.2159 19.5852 16.2159 18.6364C16.2159 17.6932 16.3352 16.8878 16.5739 16.2202C16.8153 15.5497 17.1619 15.0384 17.6136 14.6861C18.0682 14.331 18.6136 14.1534 19.25 14.1534C19.8864 14.1534 20.4304 14.331 20.8821 14.6861C21.3366 15.0384 21.6832 15.5497 21.9219 16.2202C22.1634 16.8878 22.2841 17.6932 22.2841 18.6364C22.2841 19.5852 22.1648 20.3949 21.9261 21.0653C21.6875 21.733 21.3423 22.2429 20.8906 22.5952C20.4389 22.9446 19.892 23.1193 19.25 23.1193ZM19.25 22.1818C19.8864 22.1818 20.3807 21.875 20.733 21.2614C21.0852 20.6477 21.2614 19.7727 21.2614 18.6364C21.2614 17.8807 21.1804 17.2372 21.0185 16.706C20.8594 16.1747 20.6293 15.7699 20.3281 15.4915C20.0298 15.2131 19.6705 15.0739 19.25 15.0739C18.6193 15.0739 18.1264 15.3849 17.7713 16.0071C17.4162 16.6264 17.2386 17.5028 17.2386 18.6364C17.2386 19.392 17.3182 20.0341 17.4773 20.5625C17.6364 21.0909 17.8651 21.4929 18.1634 21.7685C18.4645 22.044 18.8267 22.1818 19.25 22.1818Z" fill="black"/>
<path d="M6.46068 350.273V359H5.40387V351.381H5.35273L3.22205 352.795V351.722L5.40387 350.273H6.46068ZM11.7639 359.119C11.2639 359.119 10.8136 359.02 10.413 358.821C10.0125 358.622 9.69146 358.349 9.44998 358.003C9.2085 357.656 9.0764 357.261 9.05367 356.818H10.0764C10.1162 357.213 10.2952 357.54 10.6133 357.798C10.9344 358.054 11.3179 358.182 11.7639 358.182C12.1219 358.182 12.44 358.098 12.7184 357.93C12.9997 357.763 13.2199 357.533 13.379 357.24C13.5409 356.945 13.6219 356.611 13.6219 356.239C13.6219 355.858 13.538 355.518 13.3704 355.22C13.2057 354.919 12.9784 354.682 12.6886 354.509C12.3988 354.335 12.0679 354.247 11.6957 354.244C11.4287 354.241 11.1545 354.283 10.8733 354.368C10.592 354.45 10.3605 354.557 10.1787 354.688L9.19004 354.568L9.71845 350.273H14.2525V351.21H10.6048L10.298 353.784H10.3491C10.5281 353.642 10.7525 353.524 11.0224 353.43C11.2923 353.337 11.5736 353.29 11.8662 353.29C12.4003 353.29 12.8761 353.418 13.2937 353.673C13.7142 353.926 14.0437 354.273 14.2824 354.713C14.5238 355.153 14.6446 355.656 14.6446 356.222C14.6446 356.778 14.5196 357.276 14.2696 357.713C14.0224 358.148 13.6815 358.491 13.2469 358.744C12.8122 358.994 12.3179 359.119 11.7639 359.119ZM19.25 359.119C18.608 359.119 18.0611 358.945 17.6094 358.595C17.1577 358.243 16.8125 357.733 16.5739 357.065C16.3352 356.395 16.2159 355.585 16.2159 354.636C16.2159 353.693 16.3352 352.888 16.5739 352.22C16.8153 351.55 17.1619 351.038 17.6136 350.686C18.0682 350.331 18.6136 350.153 19.25 350.153C19.8864 350.153 20.4304 350.331 20.8821 350.686C21.3366 351.038 21.6832 351.55 21.9219 352.22C22.1634 352.888 22.2841 353.693 22.2841 354.636C22.2841 355.585 22.1648 356.395 21.9261 357.065C21.6875 357.733 21.3423 358.243 20.8906 358.595C20.4389 358.945 19.892 359.119 19.25 359.119ZM19.25 358.182C19.8864 358.182 20.3807 357.875 20.733 357.261C21.0852 356.648 21.2614 355.773 21.2614 354.636C21.2614 353.881 21.1804 353.237 21.0185 352.706C20.8594 352.175 20.6293 351.77 20.3281 351.491C20.0298 351.213 19.6705 351.074 19.25 351.074C18.6193 351.074 18.1264 351.385 17.7713 352.007C17.4162 352.626 17.2386 353.503 17.2386 354.636C17.2386 355.392 17.3182 356.034 17.4773 356.562C17.6364 357.091 17.8651 357.493 18.1634 357.768C18.4645 358.044 18.8267 358.182 19.25 358.182Z" fill="black"/>
<path d="M0.867645 77.2102V76.3409L4.70287 70.2727H5.33355V71.6193H4.90742L2.00969 76.2045V76.2727H7.17446V77.2102H0.867645ZM4.9756 79V76.946V76.5412V70.2727H5.98128V79H4.9756ZM11.684 79.1193C11.042 79.1193 10.4951 78.9446 10.0434 78.5952C9.59167 78.2429 9.2465 77.733 9.00786 77.0653C8.76923 76.3949 8.64991 75.5852 8.64991 74.6364C8.64991 73.6932 8.76923 72.8878 9.00786 72.2202C9.24934 71.5497 9.59593 71.0384 10.0476 70.6861C10.5022 70.331 11.0476 70.1534 11.684 70.1534C12.3204 70.1534 12.8644 70.331 13.3161 70.6861C13.7706 71.0384 14.1172 71.5497 14.3559 72.2202C14.5974 72.8878 14.7181 73.6932 14.7181 74.6364C14.7181 75.5852 14.5988 76.3949 14.3601 77.0653C14.1215 77.733 13.7763 78.2429 13.3246 78.5952C12.8729 78.9446 12.326 79.1193 11.684 79.1193ZM11.684 78.1818C12.3204 78.1818 12.8147 77.875 13.167 77.2614C13.5192 76.6477 13.6954 75.7727 13.6954 74.6364C13.6954 73.8807 13.6144 73.2372 13.4525 72.706C13.2934 72.1747 13.0633 71.7699 12.7621 71.4915C12.4638 71.2131 12.1045 71.0739 11.684 71.0739C11.0533 71.0739 10.5604 71.3849 10.2053 72.0071C9.85019 72.6264 9.67264 73.5028 9.67264 74.6364C9.67264 75.392 9.75218 76.0341 9.91127 76.5625C10.0704 77.0909 10.2991 77.4929 10.5974 77.7685C10.8985 78.044 11.2607 78.1818 11.684 78.1818ZM19.25 79.1193C18.608 79.1193 18.0611 78.9446 17.6094 78.5952C17.1577 78.2429 16.8125 77.733 16.5739 77.0653C16.3352 76.3949 16.2159 75.5852 16.2159 74.6364C16.2159 73.6932 16.3352 72.8878 16.5739 72.2202C16.8153 71.5497 17.1619 71.0384 17.6136 70.6861C18.0682 70.331 18.6136 70.1534 19.25 70.1534C19.8864 70.1534 20.4304 70.331 20.8821 70.6861C21.3366 71.0384 21.6832 71.5497 21.9219 72.2202C22.1634 72.8878 22.2841 73.6932 22.2841 74.6364C22.2841 75.5852 22.1648 76.3949 21.9261 77.0653C21.6875 77.733 21.3423 78.2429 20.8906 78.5952C20.4389 78.9446 19.892 79.1193 19.25 79.1193ZM19.25 78.1818C19.8864 78.1818 20.3807 77.875 20.733 77.2614C21.0852 76.6477 21.2614 75.7727 21.2614 74.6364C21.2614 73.8807 21.1804 73.2372 21.0185 72.706C20.8594 72.1747 20.6293 71.7699 20.3281 71.4915C20.0298 71.2131 19.6705 71.0739 19.25 71.0739C18.6193 71.0739 18.1264 71.3849 17.7713 72.0071C17.4162 72.6264 17.2386 73.5028 17.2386 74.6364C17.2386 75.392 17.3182 76.0341 17.4773 76.5625C17.6364 77.0909 17.8651 77.4929 18.1634 77.7685C18.4645 78.044 18.8267 78.1818 19.25 78.1818Z" fill="black"/>
<path d="M6.26147 406.273V415H5.20465V407.381H5.15351L3.02283 408.795V407.722L5.20465 406.273H6.26147ZM11.684 415.119C11.042 415.119 10.4951 414.945 10.0434 414.595C9.59167 414.243 9.2465 413.733 9.00786 413.065C8.76923 412.395 8.64991 411.585 8.64991 410.636C8.64991 409.693 8.76923 408.888 9.00786 408.22C9.24934 407.55 9.59593 407.038 10.0476 406.686C10.5022 406.331 11.0476 406.153 11.684 406.153C12.3204 406.153 12.8644 406.331 13.3161 406.686C13.7706 407.038 14.1172 407.55 14.3559 408.22C14.5974 408.888 14.7181 409.693 14.7181 410.636C14.7181 411.585 14.5988 412.395 14.3601 413.065C14.1215 413.733 13.7763 414.243 13.3246 414.595C12.8729 414.945 12.326 415.119 11.684 415.119ZM11.684 414.182C12.3204 414.182 12.8147 413.875 13.167 413.261C13.5192 412.648 13.6954 411.773 13.6954 410.636C13.6954 409.881 13.6144 409.237 13.4525 408.706C13.2934 408.175 13.0633 407.77 12.7621 407.491C12.4638 407.213 12.1045 407.074 11.684 407.074C11.0533 407.074 10.5604 407.385 10.2053 408.007C9.85019 408.626 9.67264 409.503 9.67264 410.636C9.67264 411.392 9.75218 412.034 9.91127 412.562C10.0704 413.091 10.2991 413.493 10.5974 413.768C10.8985 414.044 11.2607 414.182 11.684 414.182ZM19.25 415.119C18.608 415.119 18.0611 414.945 17.6094 414.595C17.1577 414.243 16.8125 413.733 16.5739 413.065C16.3352 412.395 16.2159 411.585 16.2159 410.636C16.2159 409.693 16.3352 408.888 16.5739 408.22C16.8153 407.55 17.1619 407.038 17.6136 406.686C18.0682 406.331 18.6136 406.153 19.25 406.153C19.8864 406.153 20.4304 406.331 20.8821 406.686C21.3366 407.038 21.6832 407.55 21.9219 408.22C22.1634 408.888 22.2841 409.693 22.2841 410.636C22.2841 411.585 22.1648 412.395 21.9261 413.065C21.6875 413.733 21.3423 414.243 20.8906 414.595C20.4389 414.945 19.892 415.119 19.25 415.119ZM19.25 414.182C19.8864 414.182 20.3807 413.875 20.733 413.261C21.0852 412.648 21.2614 411.773 21.2614 410.636C21.2614 409.881 21.1804 409.237 21.0185 408.706C20.8594 408.175 20.6293 407.77 20.3281 407.491C20.0298 407.213 19.6705 407.074 19.25 407.074C18.6193 407.074 18.1264 407.385 17.7713 408.007C17.4162 408.626 17.2386 409.503 17.2386 410.636C17.2386 411.392 17.3182 412.034 17.4773 412.562C17.6364 413.091 17.8651 413.493 18.1634 413.768C18.4645 414.044 18.8267 414.182 19.25 414.182Z" fill="black"/>
<path d="M4.27887 135.119C3.71637 135.119 3.21495 135.023 2.77461 134.83C2.33711 134.636 1.98909 134.368 1.73057 134.024C1.47489 133.678 1.33568 133.276 1.31296 132.818H2.38682C2.40955 133.099 2.50614 133.342 2.67659 133.547C2.84705 133.749 3.07006 133.905 3.34563 134.016C3.6212 134.126 3.92659 134.182 4.26182 134.182C4.63682 134.182 4.96921 134.116 5.25898 133.986C5.54875 133.855 5.77603 133.673 5.9408 133.44C6.10557 133.207 6.18796 132.938 6.18796 132.631C6.18796 132.31 6.10841 132.027 5.94932 131.783C5.79023 131.536 5.55728 131.342 5.25046 131.203C4.94364 131.064 4.56864 130.994 4.12546 130.994H3.42659V130.057H4.12546C4.47205 130.057 4.77603 129.994 5.03739 129.869C5.30159 129.744 5.50756 129.568 5.65529 129.341C5.80586 129.114 5.88114 128.847 5.88114 128.54C5.88114 128.244 5.8158 127.987 5.68512 127.768C5.55443 127.55 5.36978 127.379 5.13114 127.257C4.89534 127.135 4.61693 127.074 4.29591 127.074C3.99478 127.074 3.71068 127.129 3.44364 127.24C3.17943 127.348 2.96353 127.506 2.79591 127.713C2.6283 127.918 2.53739 128.165 2.52318 128.455H1.50046C1.5175 127.997 1.65529 127.597 1.91381 127.253C2.17233 126.906 2.5104 126.636 2.92801 126.443C3.34847 126.25 3.81012 126.153 4.31296 126.153C4.85273 126.153 5.3158 126.263 5.70216 126.482C6.08853 126.697 6.3854 126.983 6.59279 127.338C6.80017 127.693 6.90387 128.077 6.90387 128.489C6.90387 128.98 6.77461 129.399 6.51608 129.746C6.2604 130.092 5.91239 130.332 5.47205 130.466V130.534C6.02318 130.625 6.45358 130.859 6.76324 131.237C7.0729 131.612 7.22773 132.077 7.22773 132.631C7.22773 133.105 7.09847 133.531 6.83995 133.909C6.58426 134.284 6.23483 134.58 5.79165 134.795C5.34847 135.011 4.84421 135.119 4.27887 135.119ZM11.7639 135.119C11.2639 135.119 10.8136 135.02 10.413 134.821C10.0125 134.622 9.69146 134.349 9.44998 134.003C9.2085 133.656 9.0764 133.261 9.05367 132.818H10.0764C10.1162 133.213 10.2952 133.54 10.6133 133.798C10.9344 134.054 11.3179 134.182 11.7639 134.182C12.1219 134.182 12.44 134.098 12.7184 133.93C12.9997 133.763 13.2199 133.533 13.379 133.24C13.5409 132.945 13.6219 132.611 13.6219 132.239C13.6219 131.858 13.538 131.518 13.3704 131.22C13.2057 130.919 12.9784 130.682 12.6886 130.509C12.3988 130.335 12.0679 130.247 11.6957 130.244C11.4287 130.241 11.1545 130.283 10.8733 130.368C10.592 130.45 10.3605 130.557 10.1787 130.688L9.19004 130.568L9.71845 126.273H14.2525V127.21H10.6048L10.298 129.784H10.3491C10.5281 129.642 10.7525 129.524 11.0224 129.43C11.2923 129.337 11.5736 129.29 11.8662 129.29C12.4003 129.29 12.8761 129.418 13.2937 129.673C13.7142 129.926 14.0437 130.273 14.2824 130.713C14.5238 131.153 14.6446 131.656 14.6446 132.222C14.6446 132.778 14.5196 133.276 14.2696 133.713C14.0224 134.148 13.6815 134.491 13.2469 134.744C12.8122 134.994 12.3179 135.119 11.7639 135.119ZM19.25 135.119C18.608 135.119 18.0611 134.945 17.6094 134.595C17.1577 134.243 16.8125 133.733 16.5739 133.065C16.3352 132.395 16.2159 131.585 16.2159 130.636C16.2159 129.693 16.3352 128.888 16.5739 128.22C16.8153 127.55 17.1619 127.038 17.6136 126.686C18.0682 126.331 18.6136 126.153 19.25 126.153C19.8864 126.153 20.4304 126.331 20.8821 126.686C21.3366 127.038 21.6832 127.55 21.9219 128.22C22.1634 128.888 22.2841 129.693 22.2841 130.636C22.2841 131.585 22.1648 132.395 21.9261 133.065C21.6875 133.733 21.3423 134.243 20.8906 134.595C20.4389 134.945 19.892 135.119 19.25 135.119ZM19.25 134.182C19.8864 134.182 20.3807 133.875 20.733 133.261C21.0852 132.648 21.2614 131.773 21.2614 130.636C21.2614 129.881 21.1804 129.237 21.0185 128.706C20.8594 128.175 20.6293 127.77 20.3281 127.491C20.0298 127.213 19.6705 127.074 19.25 127.074C18.6193 127.074 18.1264 127.385 17.7713 128.007C17.4162 128.626 17.2386 129.503 17.2386 130.636C17.2386 131.392 17.3182 132.034 17.4773 132.562C17.6364 133.091 17.8651 133.493 18.1634 133.768C18.4645 134.044 18.8267 134.182 19.25 134.182Z" fill="black"/>
<path d="M11.7639 471.119C11.2639 471.119 10.8136 471.02 10.413 470.821C10.0125 470.622 9.69146 470.349 9.44998 470.003C9.2085 469.656 9.0764 469.261 9.05367 468.818H10.0764C10.1162 469.213 10.2952 469.54 10.6133 469.798C10.9344 470.054 11.3179 470.182 11.7639 470.182C12.1219 470.182 12.44 470.098 12.7184 469.93C12.9997 469.763 13.2199 469.533 13.379 469.24C13.5409 468.945 13.6219 468.611 13.6219 468.239C13.6219 467.858 13.538 467.518 13.3704 467.22C13.2057 466.919 12.9784 466.682 12.6886 466.509C12.3988 466.335 12.0679 466.247 11.6957 466.244C11.4287 466.241 11.1545 466.283 10.8733 466.368C10.592 466.45 10.3605 466.557 10.1787 466.688L9.19004 466.568L9.71845 462.273H14.2525V463.21H10.6048L10.298 465.784H10.3491C10.5281 465.642 10.7525 465.524 11.0224 465.43C11.2923 465.337 11.5736 465.29 11.8662 465.29C12.4003 465.29 12.8761 465.418 13.2937 465.673C13.7142 465.926 14.0437 466.273 14.2824 466.713C14.5238 467.153 14.6446 467.656 14.6446 468.222C14.6446 468.778 14.5196 469.276 14.2696 469.713C14.0224 470.148 13.6815 470.491 13.2469 470.744C12.8122 470.994 12.3179 471.119 11.7639 471.119ZM19.25 471.119C18.608 471.119 18.0611 470.945 17.6094 470.595C17.1577 470.243 16.8125 469.733 16.5739 469.065C16.3352 468.395 16.2159 467.585 16.2159 466.636C16.2159 465.693 16.3352 464.888 16.5739 464.22C16.8153 463.55 17.1619 463.038 17.6136 462.686C18.0682 462.331 18.6136 462.153 19.25 462.153C19.8864 462.153 20.4304 462.331 20.8821 462.686C21.3366 463.038 21.6832 463.55 21.9219 464.22C22.1634 464.888 22.2841 465.693 22.2841 466.636C22.2841 467.585 22.1648 468.395 21.9261 469.065C21.6875 469.733 21.3423 470.243 20.8906 470.595C20.4389 470.945 19.892 471.119 19.25 471.119ZM19.25 470.182C19.8864 470.182 20.3807 469.875 20.733 469.261C21.0852 468.648 21.2614 467.773 21.2614 466.636C21.2614 465.881 21.1804 465.237 21.0185 464.706C20.8594 464.175 20.6293 463.77 20.3281 463.491C20.0298 463.213 19.6705 463.074 19.25 463.074C18.6193 463.074 18.1264 463.385 17.7713 464.007C17.4162 464.626 17.2386 465.503 17.2386 466.636C17.2386 467.392 17.3182 468.034 17.4773 468.562C17.6364 469.091 17.8651 469.493 18.1634 469.768C18.4645 470.044 18.8267 470.182 19.25 470.182Z" fill="black"/>
<path d="M4.07965 191.119C3.51715 191.119 3.01573 191.023 2.57539 190.83C2.13789 190.636 1.78988 190.368 1.53135 190.024C1.27567 189.678 1.13647 189.276 1.11374 188.818H2.1876C2.21033 189.099 2.30692 189.342 2.47738 189.547C2.64783 189.749 2.87084 189.905 3.14641 190.016C3.42198 190.126 3.72738 190.182 4.0626 190.182C4.4376 190.182 4.76999 190.116 5.05976 189.986C5.34953 189.855 5.57681 189.673 5.74158 189.44C5.90635 189.207 5.98874 188.938 5.98874 188.631C5.98874 188.31 5.90919 188.027 5.7501 187.783C5.59101 187.536 5.35806 187.342 5.05124 187.203C4.74442 187.064 4.36942 186.994 3.92624 186.994H3.22738V186.057H3.92624C4.27283 186.057 4.57681 185.994 4.83817 185.869C5.10238 185.744 5.30834 185.568 5.45607 185.341C5.60664 185.114 5.68192 184.847 5.68192 184.54C5.68192 184.244 5.61658 183.987 5.4859 183.768C5.35522 183.55 5.17056 183.379 4.93192 183.257C4.69613 183.135 4.41772 183.074 4.09669 183.074C3.79556 183.074 3.51147 183.129 3.24442 183.24C2.98022 183.348 2.76431 183.506 2.59669 183.713C2.42908 183.918 2.33817 184.165 2.32397 184.455H1.30124C1.31828 183.997 1.45607 183.597 1.71459 183.253C1.97311 182.906 2.31118 182.636 2.7288 182.443C3.14925 182.25 3.6109 182.153 4.11374 182.153C4.65351 182.153 5.11658 182.263 5.50294 182.482C5.88931 182.697 6.18618 182.983 6.39357 183.338C6.60095 183.693 6.70465 184.077 6.70465 184.489C6.70465 184.98 6.57539 185.399 6.31686 185.746C6.06118 186.092 5.71317 186.332 5.27283 186.466V186.534C5.82397 186.625 6.25436 186.859 6.56402 187.237C6.87368 187.612 7.02851 188.077 7.02851 188.631C7.02851 189.105 6.89925 189.531 6.64073 189.909C6.38505 190.284 6.03561 190.58 5.59243 190.795C5.14925 191.011 4.64499 191.119 4.07965 191.119ZM11.684 191.119C11.042 191.119 10.4951 190.945 10.0434 190.595C9.59167 190.243 9.2465 189.733 9.00786 189.065C8.76923 188.395 8.64991 187.585 8.64991 186.636C8.64991 185.693 8.76923 184.888 9.00786 184.22C9.24934 183.55 9.59593 183.038 10.0476 182.686C10.5022 182.331 11.0476 182.153 11.684 182.153C12.3204 182.153 12.8644 182.331 13.3161 182.686C13.7706 183.038 14.1172 183.55 14.3559 184.22C14.5974 184.888 14.7181 185.693 14.7181 186.636C14.7181 187.585 14.5988 188.395 14.3601 189.065C14.1215 189.733 13.7763 190.243 13.3246 190.595C12.8729 190.945 12.326 191.119 11.684 191.119ZM11.684 190.182C12.3204 190.182 12.8147 189.875 13.167 189.261C13.5192 188.648 13.6954 187.773 13.6954 186.636C13.6954 185.881 13.6144 185.237 13.4525 184.706C13.2934 184.175 13.0633 183.77 12.7621 183.491C12.4638 183.213 12.1045 183.074 11.684 183.074C11.0533 183.074 10.5604 183.385 10.2053 184.007C9.85019 184.626 9.67264 185.503 9.67264 186.636C9.67264 187.392 9.75218 188.034 9.91127 188.562C10.0704 189.091 10.2991 189.493 10.5974 189.768C10.8985 190.044 11.2607 190.182 11.684 190.182ZM19.25 191.119C18.608 191.119 18.0611 190.945 17.6094 190.595C17.1577 190.243 16.8125 189.733 16.5739 189.065C16.3352 188.395 16.2159 187.585 16.2159 186.636C16.2159 185.693 16.3352 184.888 16.5739 184.22C16.8153 183.55 17.1619 183.038 17.6136 182.686C18.0682 182.331 18.6136 182.153 19.25 182.153C19.8864 182.153 20.4304 182.331 20.8821 182.686C21.3366 183.038 21.6832 183.55 21.9219 184.22C22.1634 184.888 22.2841 185.693 22.2841 186.636C22.2841 187.585 22.1648 188.395 21.9261 189.065C21.6875 189.733 21.3423 190.243 20.8906 190.595C20.4389 190.945 19.892 191.119 19.25 191.119ZM19.25 190.182C19.8864 190.182 20.3807 189.875 20.733 189.261C21.0852 188.648 21.2614 187.773 21.2614 186.636C21.2614 185.881 21.1804 185.237 21.0185 184.706C20.8594 184.175 20.6293 183.77 20.3281 183.491C20.0298 183.213 19.6705 183.074 19.25 183.074C18.6193 183.074 18.1264 183.385 17.7713 184.007C17.4162 184.626 17.2386 185.503 17.2386 186.636C17.2386 187.392 17.3182 188.034 17.4773 188.562C17.6364 189.091 17.8651 189.493 18.1634 189.768C18.4645 190.044 18.8267 190.182 19.25 190.182Z" fill="black"/>
<path d="M19.25 527.119C18.608 527.119 18.0611 526.945 17.6094 526.595C17.1577 526.243 16.8125 525.733 16.5739 525.065C16.3352 524.395 16.2159 523.585 16.2159 522.636C16.2159 521.693 16.3352 520.888 16.5739 520.22C16.8153 519.55 17.1619 519.038 17.6136 518.686C18.0682 518.331 18.6136 518.153 19.25 518.153C19.8864 518.153 20.4304 518.331 20.8821 518.686C21.3366 519.038 21.6832 519.55 21.9219 520.22C22.1634 520.888 22.2841 521.693 22.2841 522.636C22.2841 523.585 22.1648 524.395 21.9261 525.065C21.6875 525.733 21.3423 526.243 20.8906 526.595C20.4389 526.945 19.892 527.119 19.25 527.119ZM19.25 526.182C19.8864 526.182 20.3807 525.875 20.733 525.261C21.0852 524.648 21.2614 523.773 21.2614 522.636C21.2614 521.881 21.1804 521.237 21.0185 520.706C20.8594 520.175 20.6293 519.77 20.3281 519.491C20.0298 519.213 19.6705 519.074 19.25 519.074C18.6193 519.074 18.1264 519.385 17.7713 520.007C17.4162 520.626 17.2386 521.503 17.2386 522.636C17.2386 523.392 17.3182 524.034 17.4773 524.562C17.6364 525.091 17.8651 525.493 18.1634 525.768C18.4645 526.044 18.8267 526.182 19.25 526.182Z" fill="black"/>
<rect x="168" y="344" width="64" height="180" fill="#0094FD"/>
<rect x="432" y="180" width="64" height="344" fill="#0094FD"/>
<rect x="680" y="388" width="64" height="136" fill="#0094FD"/>
<path d="M928 272H992V524H928V272Z" fill="#0094FD"/>
<rect x="232" y="156" width="64" height="368" fill="#4ED4CF"/>
<rect x="496" y="308" width="64" height="216" fill="#4ED4CF"/>
<rect x="744" y="259" width="64" height="264" fill="#4ED4CF"/>
<rect x="992" y="216" width="64" height="308" fill="#4ED4CF"/>
<path d="M31 524V523L1216 523V524L31 524Z" fill="#747474"/>
</svg>
