<svg width="24" height="24" viewBox="0 0 24 24" fill="none" xmlns="http://www.w3.org/2000/svg">
<path d="M21.4286 24H2.57143C1.15371 24 0 22.7662 0 21.25C0 20.7128 0.138858 20.2087 0.401143 19.7852L9.81086 1.31817C10.2549 0.509666 11.0983 0 12 0C12.9017 0 13.7451 0.509667 14.1943 1.33283L23.616 19.8182C23.8611 20.2087 24 20.7128 24 21.25C24 22.7662 22.8463 24 21.4286 24ZM12 1.83333C11.7017 1.83333 11.4274 1.9965 11.2817 2.25867L1.84629 20.7733C1.752 20.9237 1.71429 21.0777 1.71429 21.25C1.71429 21.7542 2.1 22.1667 2.57143 22.1667H21.4286C21.9 22.1667 22.2857 21.7542 22.2857 21.25C22.2857 21.0777 22.248 20.9237 22.1726 20.8063L12.7251 2.27333C12.5726 1.9965 12.2983 1.83333 12 1.83333Z" fill="white"/>
<path d="M12 17C11.448 17 11 16.552 11 16V8C11 7.448 11.448 7 12 7C12.552 7 13 7.448 13 8V16C13 16.552 12.552 17 12 17Z" fill="white"/>
<path d="M12 20C12.5523 20 13 19.5523 13 19C13 18.4477 12.5523 18 12 18C11.4478 18 11 18.4477 11 19C11 19.5523 11.4478 20 12 20Z" fill="white"/>
</svg>
