<svg width="24" height="24" viewBox="0 0 24 24" fill="none" xmlns="http://www.w3.org/2000/svg">
<path d="M12 24C5.38338 24 0 18.6166 0 12C0 5.38338 5.38338 0 12 0C18.6166 0 24 5.38338 24 12C24 18.6166 18.6166 24 12 24ZM12 1.84615C6.40062 1.84615 1.84615 6.40246 1.84615 12C1.84615 17.5975 6.40062 22.1538 12 22.1538C17.5994 22.1538 22.1538 17.5975 22.1538 12C22.1538 6.40246 17.5994 1.84615 12 1.84615Z" fill="white"/>
<path d="M11.9091 17.8182C11.5181 17.8182 11.2007 17.472 11.2007 17.0455V6.77273C11.2007 6.34618 11.5181 6 11.9091 6C12.3001 6 12.6174 6.34618 12.6174 6.77273V17.0455C12.6174 17.472 12.3001 17.8182 11.9091 17.8182Z" fill="white"/>
<path d="M17.8182 11.9091C17.8182 12.3001 17.472 12.6174 17.0455 12.6174H6.77277C6.34623 12.6174 6.00005 12.3001 6.00005 11.9091C6.00005 11.5181 6.34623 11.2008 6.77277 11.2008H17.0455C17.472 11.2008 17.8182 11.5181 17.8182 11.9091Z" fill="white"/>
</svg>
