<svg width="16" height="16" viewBox="0 0 16 16" fill="none" xmlns="http://www.w3.org/2000/svg">
<path d="M2.8999 4.40002C2.8999 3.5716 3.57147 2.90002 4.3999 2.90002H9.59991C11.5329 2.90002 13.0999 4.46703 13.0999 6.40002V11.6C13.0999 12.4285 12.4283 13.1 11.5999 13.1H4.3999C3.57147 13.1 2.8999 12.4285 2.8999 11.6V4.40002Z" stroke="white"/>
<path d="M5.6001 3.2V0" stroke="white"/>
<path d="M5.6001 16V12.8" stroke="white"/>
<path d="M10.3999 16V12.8" stroke="white"/>
<path d="M16 10.4L12.8 10.4" stroke="white"/>
<path d="M3.2 10.4L0 10.4" stroke="white"/>
<path d="M3.2 5.59998L0 5.59998" stroke="white"/>
<path d="M10.3999 0.800049V0.800049C11.1431 0.800049 11.5147 0.800049 11.8256 0.849296C13.5372 1.12038 14.8796 2.46274 15.1507 4.17431C15.1999 4.48524 15.1999 4.85684 15.1999 5.60005V5.60005" stroke="white"/>
</svg>
