<svg width="15" height="18" viewBox="0 0 15 18" fill="none" xmlns="http://www.w3.org/2000/svg">
<path d="M7.90543 17.2035L8.20507 17.7234L7.90543 17.2035ZM7.04457 17.2035L6.74493 17.7234L7.04457 17.2035ZM13.35 8.31395C13.35 10.6245 12.292 12.5022 11.0225 13.9258C9.75124 15.3514 8.30014 16.2835 7.60579 16.6837L8.20507 17.7234C8.95753 17.2896 10.5287 16.2825 11.9181 14.7245C13.3091 13.1646 14.55 11.0145 14.55 8.31395H13.35ZM7.34421 16.6837C6.64986 16.2835 5.19876 15.3514 3.92754 13.9258C2.65803 12.5022 1.6 10.6245 1.6 8.31395H0.4C0.4 11.0145 1.64085 13.1646 3.03193 14.7245C4.42129 16.2825 5.99247 17.2896 6.74493 17.7234L7.34421 16.6837ZM1.6 8.31395C1.6 4.67314 4.28089 1.81753 7.475 1.81753V0.617529C3.51702 0.617529 0.4 4.11627 0.4 8.31395H1.6ZM7.475 1.81753C10.6691 1.81753 13.35 4.67314 13.35 8.31395H14.55C14.55 4.11627 11.433 0.617529 7.475 0.617529V1.81753ZM7.60579 16.6837C7.52311 16.7314 7.42689 16.7314 7.34421 16.6837L6.74493 17.7234C7.19853 17.9848 7.75147 17.9848 8.20507 17.7234L7.60579 16.6837Z" fill="white"/>
<path d="M4.64063 10.3594V9.5625L8.15625 4H8.73438V5.23438H8.34375L5.6875 9.4375V9.5H10.4219V10.3594H4.64063ZM8.40625 12V10.1172V9.74609V4H9.32812V12H8.40625Z" fill="white"/>
</svg>
