<svg width="15" height="18" viewBox="0 0 15 18" fill="none" xmlns="http://www.w3.org/2000/svg">
<path d="M7.9035 16.8859L8.20162 17.4066L7.9035 16.8859ZM7.0465 16.8859L6.74838 17.4066L7.0465 16.8859ZM13.35 8.05149C13.35 10.3459 12.2922 12.2111 11.022 13.6258C9.75027 15.0423 8.29878 15.9682 7.60538 16.3652L8.20162 17.4066C8.95287 16.9765 10.5246 15.976 11.915 14.4275C13.3069 12.8772 14.55 10.7387 14.55 8.05149H13.35ZM7.34461 16.3652C6.65122 15.9682 5.19973 15.0423 3.92797 13.6258C2.65781 12.2111 1.6 10.3459 1.6 8.05149H0.4C0.4 10.7387 1.64311 12.8772 3.03505 14.4275C4.42537 15.976 5.99713 16.9765 6.74838 17.4066L7.34461 16.3652ZM1.6 8.05149C1.6 4.43923 4.27748 1.6 7.475 1.6V0.4C3.52044 0.4 0.4 3.87489 0.4 8.05149H1.6ZM7.475 1.6C10.6725 1.6 13.35 4.43923 13.35 8.05149H14.55C14.55 3.87489 11.4296 0.4 7.475 0.4V1.6ZM7.60538 16.3652C7.523 16.4124 7.427 16.4124 7.34461 16.3652L6.74838 17.4066C7.20012 17.6653 7.74988 17.6653 8.20162 17.4066L7.60538 16.3652Z" fill="white"/>
<path d="M7.48438 11.605C7.15625 11.5998 6.82813 11.5373 6.5 11.4175C6.17188 11.2977 5.8724 11.0959 5.60156 10.812C5.33073 10.5256 5.11328 10.1388 4.94922 9.65186C4.78516 9.16227 4.70312 8.54769 4.70312 7.80811C4.70312 7.09977 4.76953 6.47217 4.90234 5.92529C5.03516 5.37581 5.22786 4.91357 5.48047 4.53857C5.73307 4.16097 6.03776 3.87451 6.39453 3.6792C6.75391 3.48389 7.15885 3.38623 7.60938 3.38623C8.05729 3.38623 8.45573 3.47607 8.80469 3.65576C9.15625 3.83284 9.44271 4.08024 9.66406 4.39795C9.88542 4.71566 10.0286 5.08154 10.0938 5.49561H9.14063C9.05208 5.13623 8.88021 4.83805 8.625 4.60107C8.36979 4.36409 8.03125 4.24561 7.60938 4.24561C6.98958 4.24561 6.5013 4.51514 6.14453 5.0542C5.79036 5.59326 5.61198 6.34977 5.60938 7.32373H5.67188C5.81771 7.10238 5.99089 6.91357 6.19141 6.75732C6.39453 6.59847 6.61849 6.47607 6.86328 6.39014C7.10807 6.3042 7.36719 6.26123 7.64062 6.26123C8.09896 6.26123 8.51823 6.37581 8.89844 6.60498C9.27865 6.83154 9.58333 7.14534 9.8125 7.54639C10.0417 7.94482 10.1563 8.40186 10.1563 8.91748C10.1563 9.41227 10.0456 9.8654 9.82422 10.2769C9.60286 10.6857 9.29167 11.0112 8.89063 11.2534C8.49219 11.493 8.02344 11.6102 7.48438 11.605ZM7.48438 10.7456C7.8125 10.7456 8.10677 10.6636 8.36719 10.4995C8.63021 10.3354 8.83724 10.1154 8.98828 9.83936C9.14193 9.56331 9.21875 9.25602 9.21875 8.91748C9.21875 8.58675 9.14453 8.28597 8.99609 8.01514C8.85026 7.7417 8.64844 7.52425 8.39063 7.36279C8.13542 7.20133 7.84375 7.12061 7.51563 7.12061C7.26823 7.12061 7.03776 7.17008 6.82422 7.26904C6.61068 7.3654 6.42318 7.49821 6.26172 7.66748C6.10286 7.83675 5.97786 8.03076 5.88672 8.24951C5.79557 8.46566 5.75 8.69352 5.75 8.93311C5.75 9.25081 5.82422 9.54769 5.97266 9.82373C6.1237 10.0998 6.32943 10.3224 6.58984 10.4917C6.85286 10.661 7.15104 10.7456 7.48438 10.7456Z" fill="white"/>
</svg>
