<svg width="24" height="25" viewBox="0 0 24 25" fill="none" xmlns="http://www.w3.org/2000/svg">
<path d="M9.39127 24.7317C7.81867 24.7317 6.53809 23.4333 6.53809 21.8368C6.53809 21.5172 6.79373 21.2578 7.10872 21.2578C7.42371 21.2578 7.67936 21.5172 7.67936 21.8368C7.67936 22.7949 8.44782 23.5738 9.39127 23.5738C10.3347 23.5738 11.1032 22.7949 11.1032 21.8368C11.1032 21.5172 11.3588 21.2578 11.6738 21.2578C11.9888 21.2578 12.2444 21.5172 12.2444 21.8368C12.2444 23.4333 10.964 24.7317 9.39127 24.7317Z" fill="white"/>
<path d="M15.6684 22.4157H3.1144C2.3802 22.4157 1.78296 21.8098 1.78296 21.0648C1.78296 20.6695 1.95265 20.2951 2.24855 20.038C2.26764 20.0211 2.28812 20.0057 2.30943 19.9917C3.42632 19.0027 4.0655 17.58 4.0655 16.0777V13.9239C4.0655 11.4096 5.74467 9.25114 8.14898 8.67442C8.45631 8.60261 8.76378 8.7933 8.83608 9.10527C8.90825 9.41639 8.71808 9.72821 8.41228 9.80158C6.52456 10.2539 5.20678 11.9492 5.20678 13.9239V16.0777C5.20678 17.9429 4.40097 19.7077 2.99807 20.9188C2.98664 20.9281 2.97675 20.9366 2.96449 20.9451C2.94401 20.9714 2.92423 21.0115 2.92423 21.0648C2.92423 21.1697 3.01102 21.2578 3.1144 21.2578H15.6684C15.7719 21.2578 15.8587 21.1697 15.8587 21.0648C15.8587 21.0107 15.8389 20.9714 15.8176 20.9451C15.8062 20.9366 15.7954 20.9281 15.7849 20.9188C15.1032 20.3291 14.5652 19.6174 14.1864 18.8029C14.0509 18.5141 14.1726 18.169 14.4579 18.0316C14.7456 17.8942 15.0826 18.0193 15.2173 18.308C15.5185 18.9534 15.9408 19.5201 16.4749 19.9941C16.4947 20.0079 16.5153 20.0226 16.5327 20.038C16.8303 20.2951 17 20.6695 17 21.0648C17 21.8098 16.4027 22.4157 15.6684 22.4157Z" fill="white"/>
<path d="M16.9999 17.0279C13.1403 17.0279 10 13.8416 10 9.92554C10 6.00923 13.1403 2.823 16.9999 2.823C20.8597 2.823 24 6.00923 24 9.92554C24 13.8416 20.8597 17.0279 16.9999 17.0279Z" fill="#FF0000"/>
<path d="M15.6275 7.76139V12.8523H14.5511V8.78305H14.5213L13.3555 9.51387V8.55933L14.6158 7.76139H15.6275ZM18.6968 12.9219C18.3455 12.9219 18.0323 12.8573 17.7572 12.728C17.4838 12.5987 17.2667 12.4206 17.1059 12.1936C16.9452 11.9665 16.8615 11.7063 16.8548 11.413H17.8989C17.9105 11.6102 17.9933 11.7701 18.1475 11.8928C18.3016 12.0154 18.4847 12.0767 18.6968 12.0767C18.8659 12.0767 19.015 12.0394 19.1443 11.9649C19.2752 11.8886 19.3771 11.7834 19.45 11.6492C19.5246 11.5133 19.5619 11.3575 19.5619 11.1818C19.5619 11.0029 19.5238 10.8454 19.4475 10.7095C19.373 10.5736 19.2694 10.4676 19.1368 10.3914C19.0042 10.3151 18.8526 10.2762 18.6819 10.2745C18.5328 10.2745 18.3878 10.3052 18.2469 10.3665C18.1077 10.4278 17.9991 10.5115 17.9213 10.6176L16.9642 10.446L17.2053 7.76139H20.3176V8.64136H18.0928L17.961 9.91657H17.9909C18.0803 9.79062 18.2154 9.68622 18.396 9.60336C18.5767 9.5205 18.7789 9.47907 19.0026 9.47907C19.3092 9.47907 19.5826 9.55116 19.8229 9.69533C20.0632 9.83951 20.2529 10.0375 20.3921 10.2894C20.5313 10.5397 20.6001 10.828 20.5985 11.1545C20.6001 11.4975 20.5206 11.8025 20.3598 12.0693C20.2007 12.3344 19.9778 12.5432 19.6911 12.6957C19.4061 12.8465 19.0747 12.9219 18.6968 12.9219Z" fill="white"/>
</svg>
