<svg width="16" height="16" viewBox="0 0 16 16" fill="none" xmlns="http://www.w3.org/2000/svg">
<path fill-rule="evenodd" clip-rule="evenodd" d="M2.69586 2.49996C-0.352548 5.44052 -0.438504 10.2507 2.5029 13.2983C5.4443 16.3459 10.2558 16.4319 13.3042 13.4913C16.3526 10.5507 16.4386 5.74057 13.4972 2.69298C10.5558 -0.354623 5.74427 -0.440602 2.69586 2.49996ZM12.3401 12.4921C9.84138 14.9024 5.91364 14.8322 3.50265 12.3342C1.09167 9.83614 1.16184 5.90948 3.66053 3.49918C6.15922 1.08888 10.087 1.15907 12.498 3.6571C14.9089 6.15513 14.8388 10.0818 12.3401 12.4921ZM10.4822 6.56676C10.7821 6.27748 10.7891 5.88476 10.4997 5.58496C10.2104 5.28515 9.81756 5.27813 9.51767 5.56741L8.01825 7.01379L6.57146 5.51476C6.2821 5.21496 5.88927 5.20794 5.58939 5.49721C5.2895 5.78649 5.28248 6.17921 5.57184 6.47901L7.01863 7.97804L5.51921 9.42441C5.21932 9.71369 5.21231 10.1064 5.50166 10.4062C5.79102 10.706 6.18385 10.713 6.48374 10.4238L7.98316 8.97739L9.42995 10.4764C9.71931 10.7762 10.1121 10.7832 10.412 10.494C10.7119 10.2047 10.7189 9.81197 10.4296 9.51216L8.98277 8.01314L10.4822 6.56676Z" fill="black"/>
</svg>
