<svg width="24" height="24" viewBox="0 0 24 24" fill="none" xmlns="http://www.w3.org/2000/svg">
<path d="M14.3595 5.20248L14.2795 4.60783L14.3595 5.20248ZM13.4311 4.81793L12.954 5.18184L13.4311 4.81793ZM17.6243 4.4822L17.2 4.90646L17.6243 4.4822ZM16.9872 3.94419L17.2258 3.39365L16.9872 3.94419ZM16.2853 3.90918L16.1027 3.33764L16.2853 3.90918ZM19.0908 6.71464L19.6623 6.89723L19.0908 6.71464ZM19.0558 6.01275L18.5052 6.2513L19.0558 6.01275ZM18.182 9.56893L18.5459 9.09189L18.182 9.56893ZM17.7975 8.64056L18.3921 8.72054L17.7975 8.64056ZM20.9299 10.5373L21.4879 10.3167L20.9299 10.5373ZM20.4584 10.0162L20.1834 10.5495L20.4584 10.0162ZM20.4583 13.9838L20.1833 13.4505L20.4583 13.9838ZM20.93 13.4626L20.372 13.2421L20.93 13.4626ZM17.7979 15.3596L18.3925 15.2795L17.7979 15.3596ZM18.1825 14.4309L18.5464 14.908L18.1825 14.4309ZM18.5179 18.6238L18.0937 18.1995L18.5179 18.6238ZM19.0558 17.9869L18.5053 17.7483L19.0558 17.9869ZM19.0908 17.2848L18.5193 17.4674L19.0908 17.2848ZM16.2854 20.0904L16.1028 20.6619L16.2854 20.0904ZM17.6243 19.5174L18.0486 19.9416L17.6243 19.5174ZM16.9873 20.0554L16.7487 19.5048L16.9873 20.0554ZM13.4311 19.1816L13.9081 19.5455L13.4311 19.1816ZM14.3595 18.7971L14.2795 19.3917L14.3595 18.7971ZM12.4628 21.9299L12.2421 21.372L12.4628 21.9299ZM12.9837 21.4585L13.5169 21.7336L12.9837 21.4585ZM9.01624 21.4584L8.483 21.7334L9.01624 21.4584ZM9.53729 21.9299L9.31668 22.4879L9.53729 21.9299ZM7.64057 18.7975L7.72055 19.3921L7.64057 18.7975ZM8.56892 19.182L8.09189 19.5459L8.56892 19.182ZM4.37561 19.5178L3.95134 19.9421L4.37561 19.5178ZM5.01272 20.0558L5.25126 19.5053L5.01272 20.0558ZM5.71458 20.0908L5.89716 20.6624L5.71458 20.0908ZM2.90913 17.2854L3.48068 17.468L2.90913 17.2854ZM2.94414 17.9873L3.49468 17.7487L2.94414 17.9873ZM3.81792 14.4311L4.18184 13.954L3.81792 14.4311ZM4.20247 15.3594L3.60783 15.2795L4.20247 15.3594ZM1.54161 13.9838L1.81664 13.4505L1.54161 13.9838ZM1.54152 10.0163L1.26644 9.48306L1.54152 10.0163ZM1.07008 10.5372L0.512135 10.3166L1.07008 10.5372ZM4.20287 8.64066L4.79752 8.56076L4.20287 8.64066ZM3.81842 9.56881L3.45443 9.09182L3.81842 9.56881ZM2.94413 6.01243L3.4947 6.2509L2.94413 6.01243ZM5.71463 3.90872L5.53205 4.48027L5.71463 3.90872ZM4.37565 4.48177L4.79992 4.90603L4.37565 4.48177ZM5.01277 3.94373L5.25131 4.49427L5.01277 3.94373ZM8.56907 4.81742L8.09197 4.45358L8.56907 4.81742ZM7.64044 5.20207L7.72052 4.60743L7.64044 5.20207ZM12.4627 2.07005L12.2421 2.62802L12.4627 2.07005ZM12.9838 2.54161L13.517 2.26658L12.9838 2.54161ZM9.53741 2.07001L9.31686 1.51201L9.53741 2.07001ZM9.01619 2.5417L8.48291 2.26673L9.01619 2.5417ZM10.3681 2.6H11.6318V1.4H10.3681V2.6ZM3.9066 5.79935L4.79992 4.90603L3.95139 4.0575L3.05807 4.95082L3.9066 5.79935ZM1.6 12.6318V11.3683H0.4V12.6318H1.6ZM4.79987 19.0935L3.90643 18.2001L3.0579 19.0486L3.95134 19.9421L4.79987 19.0935ZM11.6316 21.4H10.3682V22.6H11.6316V21.4ZM18.0937 18.1995L17.2001 19.0931L18.0486 19.9416L18.9422 19.048L18.0937 18.1995ZM20.4 11.3682V12.6319H21.6V11.3682H20.4ZM17.2 4.90646L18.0935 5.79993L18.942 4.9514L18.0486 4.05793L17.2 4.90646ZM15.2179 3.91676C14.8909 4.18436 14.6728 4.36217 14.5021 4.48084C14.3265 4.60283 14.2736 4.60863 14.2795 4.60783L14.4394 5.79712C14.726 5.75857 14.973 5.61488 15.1869 5.46624C15.4056 5.31427 15.6664 5.10029 15.9778 4.8455L15.2179 3.91676ZM12.5391 3.42114C12.5792 3.8215 12.6123 4.15725 12.6594 4.41933C12.7056 4.67567 12.7786 4.95193 12.954 5.18184L13.9081 4.45401C13.9117 4.45873 13.8783 4.41718 13.8405 4.2068C13.8037 4.00215 13.7752 3.72224 13.7332 3.30174L12.5391 3.42114ZM14.2795 4.60783C14.137 4.627 13.9953 4.56828 13.9081 4.45401L12.954 5.18184C13.3027 5.63888 13.8697 5.87376 14.4394 5.79712L14.2795 4.60783ZM18.0486 4.05793C17.9001 3.90948 17.7683 3.7772 17.6508 3.67444C17.5288 3.56775 17.3932 3.4662 17.2258 3.39365L16.7487 4.49473C16.7561 4.49793 16.7849 4.5113 16.8607 4.57763C16.941 4.6479 17.0403 4.74674 17.2 4.90646L18.0486 4.05793ZM15.9778 4.8455C16.1526 4.70247 16.2613 4.61399 16.3482 4.55206C16.4302 4.49361 16.4602 4.48318 16.4679 4.48073L16.1027 3.33764C15.9289 3.39316 15.7839 3.48072 15.6519 3.57474C15.5248 3.6653 15.3804 3.78381 15.2179 3.91676L15.9778 4.8455ZM17.2258 3.39365C16.8705 3.23972 16.4715 3.21982 16.1027 3.33764L16.4679 4.48073C16.5601 4.45127 16.6599 4.45625 16.7487 4.49473L17.2258 3.39365ZM19.0832 7.78204C19.2161 7.61955 19.3347 7.47519 19.4252 7.34809C19.5193 7.2161 19.6068 7.07103 19.6623 6.89723L18.5192 6.53206C18.5168 6.53973 18.5064 6.56973 18.4479 6.65178C18.386 6.7387 18.2975 6.84733 18.1545 7.02216L19.0832 7.78204ZM18.0935 5.79993C18.2532 5.95966 18.3521 6.05894 18.4223 6.13927C18.4887 6.2151 18.502 6.24391 18.5052 6.2513L19.6063 5.7742C19.5338 5.60678 19.4322 5.47115 19.3255 5.34918C19.2228 5.23171 19.0905 5.09986 18.942 4.9514L18.0935 5.79993ZM19.6623 6.89723C19.7801 6.52844 19.7602 6.12944 19.6063 5.7742L18.5052 6.2513C18.5437 6.34011 18.5487 6.43986 18.5192 6.53206L19.6623 6.89723ZM19.6982 9.26683C19.2777 9.22478 18.9978 9.19634 18.7931 9.15951C18.5828 9.12165 18.5412 9.08829 18.5459 9.09189L17.8181 10.046C18.048 10.2214 18.3243 10.2944 18.5806 10.3405C18.8427 10.3877 19.1785 10.4208 19.5788 10.4609L19.6982 9.26683ZM18.1545 7.02216C17.8997 7.33357 17.6857 7.59441 17.5337 7.81308C17.3851 8.02697 17.2414 8.27398 17.2028 8.56057L18.3921 8.72054C18.3913 8.72642 18.3971 8.67345 18.5191 8.49791C18.6378 8.32716 18.8156 8.10913 19.0832 7.78204L18.1545 7.02216ZM18.5459 9.09189C18.4317 9.00473 18.3729 8.86297 18.3921 8.72054L17.2028 8.56057C17.1262 9.13028 17.3611 9.6973 17.8181 10.046L18.5459 9.09189ZM21.6 11.3682C21.6 11.1583 21.6003 10.9715 21.5899 10.8158C21.5791 10.6541 21.555 10.4864 21.4879 10.3167L20.372 10.7579C20.3749 10.7654 20.3859 10.7952 20.3926 10.8957C20.3997 11.0022 20.4 11.1423 20.4 11.3682H21.6ZM19.5788 10.4609C19.8036 10.4834 19.943 10.4976 20.0483 10.5153C20.1476 10.532 20.1762 10.5458 20.1834 10.5495L20.7334 9.483C20.5713 9.39935 20.4068 9.35868 20.247 9.33184C20.093 9.306 19.9072 9.28772 19.6982 9.26683L19.5788 10.4609ZM21.4879 10.3167C21.3456 9.95666 21.0775 9.66046 20.7334 9.483L20.1834 10.5495C20.2694 10.5939 20.3364 10.6679 20.372 10.7579L21.4879 10.3167ZM19.6983 14.7332C19.9072 14.7123 20.093 14.694 20.2469 14.6682C20.4067 14.6413 20.5712 14.6007 20.7333 14.5171L20.1833 13.4505C20.1762 13.4542 20.1476 13.468 20.0482 13.4847C19.943 13.5024 19.8037 13.5166 19.5789 13.5391L19.6983 14.7332ZM20.4 12.6319C20.4 12.8577 20.3997 12.9978 20.3926 13.1042C20.3859 13.2047 20.375 13.2346 20.372 13.2421L21.488 13.6832C21.555 13.5135 21.5791 13.3458 21.5899 13.1842C21.6003 13.0285 21.6 12.8418 21.6 12.6319H20.4ZM20.7333 14.5171C21.0775 14.3396 21.3456 14.0433 21.488 13.6832L20.372 13.2421C20.3364 13.3321 20.2694 13.4062 20.1833 13.4505L20.7333 14.5171ZM19.0834 16.2176C18.8158 15.8907 18.6381 15.6727 18.5195 15.502C18.3975 15.3266 18.3917 15.2736 18.3925 15.2795L17.2032 15.4397C17.2418 15.7262 17.3855 15.9731 17.5341 16.1869C17.686 16.4055 17.8999 16.6662 18.1546 16.9775L19.0834 16.2176ZM19.5789 13.5391C19.1787 13.5791 18.843 13.6123 18.581 13.6594C18.3248 13.7055 18.0486 13.7785 17.8187 13.9538L18.5464 14.908C18.5416 14.9116 18.5832 14.8783 18.7935 14.8404C18.9981 14.8036 19.278 14.7752 19.6983 14.7332L19.5789 13.5391ZM18.3925 15.2795C18.3733 15.137 18.432 14.9952 18.5464 14.908L17.8187 13.9538C17.3614 14.3025 17.1265 14.8698 17.2032 15.4397L18.3925 15.2795ZM18.9422 19.048C19.0906 18.8996 19.2228 18.7678 19.3256 18.6504C19.4322 18.5285 19.5337 18.3929 19.6063 18.2256L18.5053 17.7483C18.5021 17.7557 18.4887 17.7845 18.4224 17.8603C18.3521 17.9406 18.2533 18.0398 18.0937 18.1995L18.9422 19.048ZM18.1546 16.9775C18.2976 17.1523 18.386 17.2609 18.4479 17.3478C18.5064 17.4298 18.5168 17.4598 18.5193 17.4674L19.6623 17.1021C19.6068 16.9284 19.5193 16.7834 19.4253 16.6514C19.3347 16.5244 19.2163 16.3801 19.0834 16.2176L18.1546 16.9775ZM19.6063 18.2256C19.7603 17.8702 19.7802 17.471 19.6623 17.1021L18.5193 17.4674C18.5487 17.5597 18.5438 17.6595 18.5053 17.7483L19.6063 18.2256ZM15.218 20.0828C15.3805 20.2157 15.5248 20.3343 15.6519 20.4248C15.7839 20.5188 15.929 20.6064 16.1028 20.6619L16.4679 19.5188C16.4603 19.5164 16.4303 19.5059 16.3482 19.4475C16.2613 19.3856 16.1527 19.2971 15.9779 19.1541L15.218 20.0828ZM17.2001 19.0931C17.0403 19.2528 16.9411 19.3517 16.8607 19.4219C16.7849 19.4883 16.7561 19.5016 16.7487 19.5048L17.2258 20.6059C17.3932 20.5334 17.5289 20.4318 17.6508 20.3251C17.7683 20.2224 17.9001 20.0901 18.0486 19.9416L17.2001 19.0931ZM16.1028 20.6619C16.4716 20.7797 16.8706 20.7598 17.2258 20.6059L16.7487 19.5048C16.6599 19.5433 16.5601 19.5483 16.4679 19.5188L16.1028 20.6619ZM13.7332 20.698C13.7752 20.2775 13.8037 19.9975 13.8405 19.7928C13.8784 19.5824 13.9118 19.5408 13.9081 19.5455L12.9541 18.8177C12.7787 19.0476 12.7056 19.3239 12.6595 19.5803C12.6123 19.8424 12.5792 20.1782 12.5391 20.5786L13.7332 20.698ZM15.9779 19.1541C15.6665 18.8993 15.4056 18.6853 15.187 18.5333C14.9731 18.3847 14.7261 18.241 14.4395 18.2024L14.2795 19.3917C14.2736 19.3909 14.3266 19.3967 14.5021 19.5187C14.6729 19.6374 14.8909 19.8152 15.218 20.0828L15.9779 19.1541ZM13.9081 19.5455C13.9953 19.4313 14.1371 19.3726 14.2795 19.3917L14.4395 18.2024C13.8698 18.1258 13.3027 18.3607 12.9541 18.8177L13.9081 19.5455ZM11.6316 22.6C11.8416 22.6 12.0285 22.6003 12.1842 22.5899C12.346 22.5791 12.5138 22.555 12.6835 22.4879L12.2421 21.372C12.2346 21.3749 12.2048 21.3859 12.1043 21.3926C11.9977 21.3997 11.8576 21.4 11.6316 21.4V22.6ZM12.5391 20.5786C12.5167 20.8035 12.5024 20.9429 12.4847 21.0482C12.468 21.1476 12.4542 21.1762 12.4505 21.1834L13.5169 21.7336C13.6006 21.5714 13.6413 21.4068 13.6682 21.247C13.694 21.093 13.7123 20.907 13.7332 20.698L12.5391 20.5786ZM12.6835 22.4879C13.0434 22.3455 13.3395 22.0775 13.5169 21.7336L12.4505 21.1834C12.4061 21.2694 12.3321 21.3364 12.2421 21.372L12.6835 22.4879ZM8.26683 20.6983C8.28772 20.9072 8.306 21.093 8.33184 21.247C8.35868 21.4068 8.39935 21.5713 8.483 21.7334L9.54949 21.1834C9.5458 21.1762 9.53196 21.1476 9.51528 21.0483C9.4976 20.943 9.48335 20.8036 9.46088 20.5788L8.26683 20.6983ZM10.3682 21.4C10.1423 21.4 10.0022 21.3997 9.89575 21.3926C9.79523 21.3859 9.7654 21.3749 9.75791 21.372L9.31668 22.4879C9.48636 22.555 9.65408 22.5791 9.81578 22.5899C9.97151 22.6003 10.1583 22.6 10.3682 22.6V21.4ZM8.483 21.7334C8.66046 22.0775 8.95666 22.3456 9.31668 22.4879L9.75791 21.372C9.66791 21.3364 9.59386 21.2694 9.54949 21.1834L8.483 21.7334ZM6.78202 20.0832C7.10911 19.8156 7.32715 19.6378 7.49791 19.5191C7.67345 19.3971 7.72643 19.3913 7.72055 19.3921L7.56059 18.2028C7.27399 18.2414 7.02698 18.3851 6.81308 18.5337C6.5944 18.6857 6.33356 18.8997 6.02213 19.1545L6.78202 20.0832ZM9.46088 20.5788C9.42084 20.1785 9.38771 19.8427 9.34054 19.5806C9.29441 19.3243 9.22135 19.048 9.04595 18.8181L8.09189 19.5459C8.08829 19.5412 8.12165 19.5828 8.15951 19.7932C8.19634 19.9978 8.22478 20.2777 8.26683 20.6983L9.46088 20.5788ZM7.72055 19.3921C7.86297 19.373 8.00472 19.4317 8.09189 19.5459L9.04595 18.8181C8.6973 18.3611 8.13028 18.1262 7.56059 18.2028L7.72055 19.3921ZM3.95134 19.9421C4.09981 20.0905 4.23166 20.2228 4.34913 20.3256C4.47111 20.4323 4.60675 20.5338 4.77418 20.6064L5.25126 19.5053C5.24387 19.5021 5.21506 19.4887 5.13923 19.4224C5.0589 19.3521 4.95961 19.2533 4.79987 19.0935L3.95134 19.9421ZM6.02213 19.1545C5.8473 19.2975 5.73866 19.386 5.65173 19.4479C5.56968 19.5064 5.53968 19.5168 5.53201 19.5193L5.89716 20.6624C6.07097 20.6069 6.21605 20.5193 6.34804 20.4253C6.47515 20.3347 6.61952 20.2162 6.78202 20.0832L6.02213 19.1545ZM4.77418 20.6064C5.1294 20.7603 5.52838 20.7802 5.89716 20.6624L5.53201 19.5193C5.43981 19.5487 5.34007 19.5438 5.25126 19.5053L4.77418 20.6064ZM2.91673 16.218C2.78378 16.3804 2.66526 16.5248 2.5747 16.6519C2.48067 16.7839 2.39311 16.929 2.33759 17.1028L3.48068 17.468C3.48313 17.4603 3.49356 17.4303 3.55202 17.3482C3.61395 17.2613 3.70243 17.1527 3.84548 16.9778L2.91673 16.218ZM3.90643 18.2001C3.7467 18.0404 3.64785 17.9411 3.57758 17.8607C3.51125 17.7849 3.49788 17.7561 3.49468 17.7487L2.3936 18.2258C2.46614 18.3932 2.56769 18.5289 2.67439 18.6508C2.77715 18.7683 2.90944 18.9002 3.0579 19.0486L3.90643 18.2001ZM2.33759 17.1028C2.21978 17.4716 2.23968 17.8706 2.3936 18.2258L3.49468 17.7487C3.4562 17.6599 3.45123 17.5602 3.48068 17.468L2.33759 17.1028ZM2.30173 14.7332C2.72223 14.7752 3.00214 14.8037 3.20679 14.8405C3.41717 14.8783 3.45872 14.9117 3.45401 14.9081L4.18184 13.954C3.95193 13.7786 3.67567 13.7056 3.41932 13.6594C3.15724 13.6123 2.8215 13.5792 2.42113 13.5391L2.30173 14.7332ZM3.84548 16.9778C4.10027 16.6664 4.31426 16.4056 4.46623 16.1869C4.61488 15.973 4.75856 15.726 4.79712 15.4394L3.60783 15.2795C3.60862 15.2736 3.60283 15.3265 3.48083 15.5021C3.36216 15.6728 3.18434 15.8909 2.91673 16.218L3.84548 16.9778ZM3.45401 14.9081C3.56827 14.9953 3.62699 15.137 3.60783 15.2795L4.79712 15.4394C4.87375 14.8697 4.63888 14.3027 4.18184 13.954L3.45401 14.9081ZM0.4 12.6318C0.4 12.8417 0.39969 13.0285 0.41009 13.1842C0.420888 13.3459 0.44499 13.5136 0.512075 13.6833L1.62802 13.2421C1.62506 13.2346 1.61414 13.2048 1.60742 13.1042C1.60031 12.9978 1.6 12.8577 1.6 12.6318H0.4ZM2.42113 13.5391C2.19637 13.5166 2.057 13.5024 1.95174 13.4847C1.85239 13.468 1.8238 13.4542 1.81664 13.4505L1.26658 14.517C1.42874 14.6007 1.59322 14.6413 1.75304 14.6682C1.90695 14.694 2.09282 14.7123 2.30173 14.7332L2.42113 13.5391ZM0.512075 13.6833C0.654425 14.0433 0.922493 14.3395 1.26658 14.517L1.81664 13.4505C1.73062 13.4061 1.66361 13.3321 1.62802 13.2421L0.512075 13.6833ZM2.30185 9.26682C2.09289 9.28772 1.90697 9.306 1.75301 9.33185C1.59316 9.35869 1.42863 9.39938 1.26644 9.48306L1.81661 10.5495C1.82377 10.5458 1.85237 10.532 1.95174 10.5153C2.05702 10.4976 2.19643 10.4833 2.42126 10.4609L2.30185 9.26682ZM1.6 11.3683C1.6 11.1424 1.60031 11.0023 1.60743 10.8957C1.61414 10.7952 1.62507 10.7654 1.62803 10.7579L0.512135 10.3166C0.445014 10.4863 0.420899 10.654 0.410095 10.8158C0.399689 10.9715 0.4 11.1583 0.4 11.3683H1.6ZM1.26644 9.48306C0.922466 9.66051 0.65448 9.95663 0.512135 10.3166L1.62803 10.7579C1.66362 10.6679 1.73062 10.5939 1.81661 10.5495L1.26644 9.48306ZM2.9169 7.78176C3.1846 8.10895 3.36248 8.32705 3.48118 8.49786C3.60322 8.67346 3.609 8.72645 3.60821 8.72057L4.79752 8.56076C4.759 8.27408 4.61528 8.027 4.46659 7.81305C4.31458 7.59431 4.10053 7.33339 3.84565 7.02188L2.9169 7.78176ZM2.42126 10.4609C2.82173 10.4208 3.15756 10.3877 3.41971 10.3405C3.67613 10.2944 3.95246 10.2213 4.1824 10.0458L3.45443 9.09182C3.45915 9.08823 3.41759 9.1216 3.20715 9.15947C3.00245 9.19632 2.72247 9.22476 2.30185 9.26682L2.42126 10.4609ZM3.60821 8.72057C3.62734 8.86296 3.56864 9.00467 3.45443 9.09182L4.1824 10.0458C4.63926 9.69717 4.87405 9.13032 4.79752 8.56076L3.60821 8.72057ZM3.05807 4.95082C2.90956 5.09934 2.77721 5.23124 2.67442 5.34875C2.56769 5.47077 2.4661 5.60647 2.39356 5.77396L3.4947 6.2509C3.49791 6.24351 3.51127 6.21468 3.57763 6.13883C3.64792 6.05847 3.74681 5.95914 3.9066 5.79935L3.05807 4.95082ZM3.84565 7.02188C3.70255 6.84697 3.61403 6.73829 3.55207 6.65133C3.49359 6.56924 3.48316 6.53922 3.48071 6.53155L2.33757 6.89655C2.39309 7.07044 2.48067 7.21557 2.57474 7.34761C2.66533 7.47477 2.78389 7.6192 2.9169 7.78176L3.84565 7.02188ZM2.39356 5.77396C2.23975 6.12908 2.21985 6.5279 2.33757 6.89655L3.48071 6.53155C3.45128 6.43939 3.45625 6.33968 3.4947 6.2509L2.39356 5.77396ZM6.78214 3.91639C6.61961 3.78341 6.47523 3.66488 6.34811 3.57431C6.21611 3.48027 6.07103 3.3927 5.8972 3.33717L5.53205 4.48027C5.53972 4.48272 5.56972 4.49315 5.65179 4.55163C5.73874 4.61357 5.84739 4.70207 6.02225 4.84514L6.78214 3.91639ZM4.79992 4.90603C4.95965 4.7463 5.05894 4.64745 5.13927 4.57717C5.2151 4.51084 5.24392 4.49747 5.25131 4.49427L4.77423 3.39318C4.6068 3.46573 4.47115 3.56728 4.34918 3.67398C4.23171 3.77675 4.09985 3.90904 3.95139 4.0575L4.79992 4.90603ZM5.8972 3.33717C5.52843 3.21937 5.12945 3.23927 4.77423 3.39318L5.25131 4.49427C5.34011 4.45579 5.43986 4.45082 5.53205 4.48027L5.8972 3.33717ZM8.26685 3.3016C8.22481 3.72199 8.19638 4.00182 8.15957 4.20642C8.12172 4.41674 8.08838 4.45829 8.09197 4.45358L9.04616 5.18126C9.22146 4.95139 9.29449 4.6752 9.3406 4.41892C9.38775 4.15691 9.42087 3.82126 9.46089 3.42101L8.26685 3.3016ZM6.02225 4.84514C6.33363 5.0999 6.59443 5.31385 6.81306 5.46581C7.0269 5.61443 7.27385 5.75811 7.56036 5.7967L7.72052 4.60743C7.72641 4.60823 7.67345 4.60243 7.49792 4.48043C7.32719 4.36177 7.10918 4.18397 6.78214 3.91639L6.02225 4.84514ZM8.09197 4.45358C8.0048 4.56788 7.86299 4.62662 7.72052 4.60743L7.56036 5.7967C8.13024 5.87345 8.69747 5.63849 9.04616 5.18126L8.09197 4.45358ZM11.6318 2.6C11.8577 2.6 11.9978 2.60031 12.1043 2.60742C12.2048 2.61414 12.2346 2.62506 12.2421 2.62802L12.6833 1.51208C12.5136 1.44499 12.3459 1.42089 12.1842 1.41009C12.0285 1.39969 11.8417 1.4 11.6318 1.4V2.6ZM13.7332 3.30174C13.7123 3.09283 13.694 2.90695 13.6682 2.75304C13.6413 2.59322 13.6007 2.42874 13.517 2.26658L12.4505 2.81664C12.4542 2.8238 12.468 2.85239 12.4847 2.95175C12.5024 3.057 12.5166 3.19638 12.5391 3.42114L13.7332 3.30174ZM12.2421 2.62802C12.3321 2.66361 12.4061 2.73062 12.4505 2.81664L13.517 2.26658C13.3395 1.92249 13.0433 1.65443 12.6833 1.51208L12.2421 2.62802ZM10.3681 1.4C10.1582 1.4 9.97149 1.39969 9.81581 1.41008C9.65416 1.42088 9.48649 1.44497 9.31686 1.51201L9.75795 2.628C9.76544 2.62504 9.79526 2.61413 9.89575 2.60742C10.0022 2.60031 10.1423 2.6 10.3681 2.6V1.4ZM9.46089 3.42101C9.48336 3.19631 9.49761 3.05697 9.51527 2.95175C9.53195 2.85242 9.54578 2.82384 9.54947 2.81668L8.48291 2.26673C8.39931 2.42885 8.35866 2.59329 8.33184 2.75306C8.306 2.90693 8.28773 3.09276 8.26685 3.3016L9.46089 3.42101ZM9.31686 1.51201C8.9567 1.65437 8.66039 1.92252 8.48291 2.26673L9.54947 2.81668C9.59384 2.73063 9.66791 2.66359 9.75795 2.628L9.31686 1.51201Z" fill="white"/>
<circle cx="11" cy="12" r="4" stroke="white" stroke-width="1.2"/>
</svg>
