<svg width="25" height="24" viewBox="0 0 25 24" fill="none" xmlns="http://www.w3.org/2000/svg">
<path fill-rule="evenodd" clip-rule="evenodd" d="M5.39772 9.68814L3.73179 8.24433C3.31443 7.88262 2.68288 7.92773 2.32117 8.34509C1.95946 8.76244 2.00457 9.394 2.42193 9.7557L3.86617 11.0074L3.97083 10.9167C4.46745 10.4862 4.94221 10.0747 5.39772 9.68814ZM7.7243 14.2808C8.11192 14.5839 8.47897 14.8539 8.83103 15.0885C9.9746 15.8505 11.0612 16.3102 12.3076 16.3102C13.554 16.3102 14.6407 15.8505 15.7842 15.0885C16.8915 14.3507 18.1472 13.2623 19.7244 11.8955L19.7765 11.8502L22.1933 9.7557C22.6107 9.394 22.6558 8.76244 22.2941 8.34509C21.9324 7.92773 21.3008 7.88262 20.8835 8.24433L18.4667 10.3389C16.8255 11.7612 15.6646 12.7649 14.6752 13.4241C13.7099 14.0674 13.011 14.3102 12.3076 14.3102C11.6043 14.3102 10.9053 14.0674 9.94006 13.4241C9.72977 13.284 9.51173 13.1283 9.28297 12.9564C8.82911 13.3304 8.31743 13.7683 7.7243 14.2808Z" fill="white"/>
<path fill-rule="evenodd" clip-rule="evenodd" d="M16.891 9.71894C16.5033 9.41581 16.1363 9.14579 15.7842 8.9112C14.6407 8.14918 13.554 7.68945 12.3076 7.68945C11.0612 7.68945 9.9746 8.14918 8.83103 8.9112C7.72373 9.64904 6.46802 10.7374 4.89089 12.1042L4.83871 12.1494L2.42193 14.244C2.00457 14.6057 1.95946 15.2373 2.32117 15.6546C2.68288 16.072 3.31443 16.1171 3.73179 15.7554L6.14857 13.6608C7.78975 12.2385 8.95068 11.2348 9.94006 10.5755C10.9053 9.93234 11.6043 9.68945 12.3076 9.68945C13.011 9.68945 13.7099 9.93234 14.6752 10.5755C14.8855 10.7157 15.1035 10.8714 15.3323 11.0433C15.7861 10.6693 16.2978 10.2314 16.891 9.71894ZM20.7491 12.9923L20.6444 13.083C20.1478 13.5135 19.673 13.925 19.2175 14.3116L20.8835 15.7554C21.3008 16.1171 21.9324 16.072 22.2941 15.6546C22.6558 15.2373 22.6107 14.6057 22.1933 14.244L20.7491 12.9923Z" fill="white"/>
</svg>
