<svg width="24" height="24" viewBox="0 0 24 24" fill="none" xmlns="http://www.w3.org/2000/svg">
<path d="M15 15V14.15H14.15V15H15ZM20.399 21.601C20.7309 21.933 21.2691 21.933 21.601 21.601C21.933 21.2691 21.933 20.7309 21.601 20.399L20.399 21.601ZM15 9H14.15V9.85H15V9ZM21.601 3.60104C21.933 3.2691 21.933 2.7309 21.601 2.39896C21.2691 2.06701 20.7309 2.06701 20.399 2.39896L21.601 3.60104ZM9 15H9.85V14.15H9V15ZM2.39896 20.399C2.06701 20.7309 2.06701 21.2691 2.39896 21.601C2.7309 21.933 3.2691 21.933 3.60104 21.601L2.39896 20.399ZM9 9V9.85H9.85V9H9ZM3.60104 2.39896C3.2691 2.06701 2.7309 2.06701 2.39896 2.39896C2.06701 2.7309 2.06701 3.2691 2.39896 3.60104L3.60104 2.39896ZM15.85 20V15H14.15V20H15.85ZM15 15.85H20V14.15H15V15.85ZM14.399 15.601L20.399 21.601L21.601 20.399L15.601 14.399L14.399 15.601ZM14.15 4V9H15.85V4H14.15ZM15 9.85H20V8.15H15V9.85ZM15.601 9.60104L21.601 3.60104L20.399 2.39896L14.399 8.39896L15.601 9.60104ZM9.85 20V15H8.15V20H9.85ZM9 14.15H4V15.85H9V14.15ZM8.39896 14.399L2.39896 20.399L3.60104 21.601L9.60104 15.601L8.39896 14.399ZM8.15 4V9H9.85V4H8.15ZM9 8.15H4V9.85H9V8.15ZM9.60104 8.39896L3.60104 2.39896L2.39896 3.60104L8.39896 9.60104L9.60104 8.39896Z" fill="white"/>
</svg>
